<svg xmlns="http://www.w3.org/2000/svg" width="1024" height="1024" viewBox="0 0 1024 1024" fill="none">
<path d="M 609.0 663.0 L 607.0 664.0 L 606.0 693.0 L 609.0 721.0 L 606.0 776.0 L 604.0 779.0 L 599.0 808.0 L 594.0 813.0 L 586.0 829.0 L 585.0 836.0 L 576.0 843.0 L 574.0 849.0 L 589.0 841.0 L 601.0 838.0 L 620.0 821.0 L 628.0 804.0 L 630.0 795.0 L 630.0 778.0 L 634.0 772.0 L 639.0 772.0 L 651.0 780.0 L 676.0 806.0 L 687.0 812.0 L 693.0 812.0 L 677.0 789.0 L 676.0 785.0 L 666.0 773.0 L 666.0 770.0 L 651.0 747.0 L 645.0 743.0 L 643.0 733.0 L 630.0 710.0 L 617.0 674.0 Z M 375.0 624.0 L 374.0 631.0 L 358.0 670.0 L 356.0 680.0 L 352.0 686.0 L 352.0 694.0 L 349.0 702.0 L 353.0 714.0 L 356.0 717.0 L 356.0 723.0 L 369.0 761.0 L 372.0 763.0 L 374.0 776.0 L 380.0 788.0 L 382.0 799.0 L 385.0 807.0 L 387.0 808.0 L 394.0 832.0 L 398.0 834.0 L 424.0 819.0 L 466.0 785.0 L 477.0 779.0 L 485.0 777.0 L 486.0 774.0 L 463.0 751.0 L 461.0 746.0 L 455.0 742.0 L 454.0 737.0 L 426.0 703.0 L 416.0 686.0 L 408.0 678.0 L 405.0 671.0 L 396.0 660.0 L 395.0 656.0 L 389.0 651.0 L 388.0 646.0 L 380.0 637.0 L 378.0 632.0 L 378.0 624.0 Z M 388.0 601.0 L 389.0 607.0 L 406.0 627.0 L 408.0 627.0 L 418.0 639.0 L 442.0 659.0 L 477.0 681.0 L 494.0 687.0 L 510.0 690.0 L 539.0 688.0 L 560.0 678.0 L 565.0 673.0 L 570.0 671.0 L 574.0 665.0 L 581.0 661.0 L 597.0 639.0 L 598.0 633.0 L 600.0 632.0 L 599.0 622.0 L 579.0 646.0 L 557.0 657.0 L 554.0 661.0 L 525.0 664.0 L 484.0 663.0 L 469.0 660.0 L 447.0 645.0 L 444.0 645.0 L 441.0 641.0 L 435.0 639.0 L 434.0 636.0 L 422.0 626.0 L 414.0 622.0 L 410.0 617.0 L 401.0 614.0 L 400.0 610.0 L 397.0 609.0 L 391.0 601.0 Z M 539.0 505.0 L 529.0 510.0 L 527.0 514.0 L 507.0 512.0 L 499.0 507.0 L 493.0 507.0 L 489.0 509.0 L 489.0 511.0 L 498.0 511.0 L 499.0 514.0 L 523.0 518.0 L 524.0 516.0 L 529.0 516.0 L 539.0 507.0 Z M 414.0 480.0 L 418.0 482.0 L 438.0 481.0 L 436.0 479.0 Z M 617.0 468.0 L 595.0 469.0 L 593.0 472.0 L 608.0 472.0 Z M 536.0 461.0 L 533.0 468.0 L 539.0 487.0 L 537.0 493.0 L 551.0 493.0 L 548.0 477.0 Z M 370.0 401.0 L 370.0 436.0 L 372.0 453.0 L 376.0 458.0 L 377.0 463.0 L 379.0 463.0 L 387.0 473.0 L 394.0 477.0 L 401.0 478.0 L 403.0 475.0 L 393.0 471.0 L 379.0 462.0 L 373.0 438.0 L 373.0 401.0 Z M 395.0 400.0 L 422.0 399.0 L 428.0 397.0 L 399.0 397.0 L 395.0 398.0 Z M 484.0 394.0 L 481.0 395.0 L 482.0 421.0 L 483.0 426.0 L 485.0 427.0 L 486.0 395.0 Z M 468.0 394.0 L 459.0 393.0 L 449.0 394.0 L 448.0 396.0 L 458.0 397.0 Z M 555.0 391.0 L 559.0 392.0 L 591.0 389.0 L 567.0 388.0 L 556.0 389.0 Z M 496.0 392.0 L 521.0 391.0 L 531.0 394.0 L 535.0 400.0 L 536.0 431.0 L 538.0 433.0 L 539.0 447.0 L 542.0 452.0 L 548.0 457.0 L 549.0 460.0 L 554.0 462.0 L 556.0 466.0 L 570.0 471.0 L 578.0 471.0 L 571.0 466.0 L 550.0 458.0 L 547.0 454.0 L 545.0 446.0 L 541.0 442.0 L 542.0 437.0 L 540.0 434.0 L 539.0 397.0 L 543.0 393.0 L 542.0 391.0 L 529.0 390.0 L 525.0 388.0 L 513.0 388.0 Z M 639.0 385.0 L 642.0 386.0 L 647.0 392.0 L 650.0 439.0 L 650.0 386.0 Z M 605.0 386.0 L 605.0 389.0 L 618.0 389.0 L 624.0 387.0 L 630.0 388.0 L 627.0 385.0 Z M 380.0 329.0 L 372.0 344.0 L 363.0 351.0 L 362.0 354.0 L 360.0 354.0 L 353.0 364.0 L 349.0 374.0 L 349.0 383.0 L 355.0 364.0 L 358.0 363.0 L 375.0 344.0 Z M 583.0 276.0 L 585.0 297.0 L 580.0 304.0 L 582.0 308.0 L 588.0 312.0 L 589.0 305.0 L 586.0 290.0 L 588.0 287.0 L 593.0 288.0 L 608.0 306.0 L 609.0 310.0 L 613.0 312.0 L 618.0 326.0 L 624.0 330.0 L 618.0 311.0 L 614.0 303.0 L 608.0 298.0 L 608.0 295.0 L 595.0 282.0 Z M 378.0 304.0 L 379.0 314.0 L 381.0 314.0 L 380.0 292.0 L 385.0 278.0 L 389.0 273.0 L 396.0 271.0 L 409.0 272.0 L 420.0 270.0 L 448.0 258.0 L 462.0 255.0 L 489.0 255.0 L 503.0 258.0 L 537.0 273.0 L 539.0 276.0 L 549.0 280.0 L 566.0 293.0 L 569.0 292.0 L 561.0 283.0 L 553.0 277.0 L 550.0 277.0 L 544.0 270.0 L 528.0 264.0 L 527.0 262.0 L 521.0 261.0 L 518.0 258.0 L 509.0 258.0 L 498.0 251.0 L 490.0 251.0 L 482.0 248.0 L 465.0 248.0 L 464.0 250.0 L 457.0 249.0 L 443.0 252.0 L 431.0 260.0 L 417.0 266.0 L 399.0 269.0 L 386.0 268.0 L 380.0 279.0 Z M 641.0 182.0 L 638.0 181.0 L 630.0 171.0 L 626.0 170.0 L 624.0 167.0 L 615.0 162.0 L 596.0 156.0 L 585.0 155.0 L 584.0 150.0 L 572.0 150.0 L 569.0 147.0 L 569.0 144.0 L 577.0 137.0 L 544.0 130.0 L 517.0 130.0 L 507.0 133.0 L 494.0 134.0 L 493.0 130.0 L 484.0 130.0 L 482.0 128.0 L 484.0 121.0 L 450.0 127.0 L 437.0 133.0 L 428.0 134.0 L 396.0 151.0 L 391.0 157.0 L 383.0 161.0 L 383.0 163.0 L 374.0 170.0 L 368.0 180.0 L 363.0 184.0 L 356.0 197.0 L 354.0 197.0 L 351.0 192.0 L 345.0 191.0 L 343.0 206.0 L 331.0 207.0 L 338.0 224.0 L 325.0 230.0 L 315.0 241.0 L 318.0 244.0 L 318.0 247.0 L 322.0 249.0 L 322.0 252.0 L 312.0 266.0 L 312.0 271.0 L 309.0 274.0 L 306.0 287.0 L 308.0 287.0 L 315.0 295.0 L 313.0 342.0 L 317.0 358.0 L 318.0 373.0 L 321.0 378.0 L 323.0 389.0 L 328.0 395.0 L 333.0 397.0 L 338.0 395.0 L 339.0 372.0 L 342.0 360.0 L 351.0 349.0 L 363.0 340.0 L 365.0 336.0 L 367.0 336.0 L 370.0 325.0 L 368.0 287.0 L 369.0 279.0 L 376.0 267.0 L 376.0 264.0 L 366.0 259.0 L 354.0 246.0 L 353.0 241.0 L 355.0 239.0 L 360.0 239.0 L 370.0 249.0 L 378.0 251.0 L 380.0 255.0 L 385.0 257.0 L 407.0 258.0 L 416.0 256.0 L 421.0 251.0 L 431.0 249.0 L 443.0 240.0 L 444.0 236.0 L 448.0 233.0 L 448.0 230.0 L 455.0 225.0 L 457.0 220.0 L 463.0 218.0 L 465.0 214.0 L 471.0 212.0 L 481.0 204.0 L 513.0 194.0 L 522.0 195.0 L 524.0 200.0 L 518.0 204.0 L 496.0 209.0 L 492.0 213.0 L 480.0 216.0 L 474.0 220.0 L 468.0 228.0 L 464.0 229.0 L 459.0 234.0 L 457.0 239.0 L 469.0 238.0 L 491.0 240.0 L 522.0 249.0 L 558.0 268.0 L 569.0 277.0 L 571.0 281.0 L 573.0 281.0 L 573.0 279.0 L 567.0 269.0 L 569.0 263.0 L 577.0 262.0 L 580.0 264.0 L 585.0 264.0 L 594.0 272.0 L 598.0 273.0 L 613.0 284.0 L 626.0 308.0 L 630.0 312.0 L 635.0 327.0 L 646.0 332.0 L 654.0 340.0 L 657.0 349.0 L 660.0 351.0 L 660.0 372.0 L 662.0 372.0 L 669.0 331.0 L 669.0 299.0 L 664.0 267.0 L 660.0 257.0 L 662.0 253.0 L 668.0 252.0 L 669.0 248.0 L 660.0 222.0 L 645.0 203.0 L 634.0 195.0 L 635.0 189.0 L 642.0 186.0 Z M 619.0 257.0 L 625.0 258.0 L 636.0 269.0 L 642.0 281.0 L 641.0 289.0 L 636.0 289.0 L 628.0 280.0 L 627.0 275.0 L 623.0 273.0 L 623.0 269.0 L 617.0 264.0 L 617.0 259.0 Z M 620.0 228.0 L 628.0 231.0 L 641.0 250.0 L 642.0 256.0 L 645.0 257.0 L 644.0 263.0 L 640.0 266.0 L 636.0 265.0 L 632.0 259.0 L 630.0 250.0 L 617.0 236.0 L 617.0 231.0 Z M 435.0 162.0 L 438.0 165.0 L 438.0 169.0 L 418.0 178.0 L 417.0 181.0 L 414.0 181.0 L 401.0 190.0 L 386.0 208.0 L 386.0 211.0 L 381.0 216.0 L 378.0 222.0 L 378.0 227.0 L 375.0 231.0 L 369.0 232.0 L 366.0 228.0 L 365.0 222.0 L 376.0 208.0 L 382.0 196.0 L 400.0 181.0 L 404.0 175.0 L 407.0 175.0 L 412.0 170.0 Z" fill="#a4dfe5" fill-rule="evenodd" clip-rule="evenodd"/>
<path d="M 645.0 716.0 L 647.0 722.0 L 650.0 722.0 L 656.0 726.0 L 675.0 732.0 L 680.0 731.0 L 684.0 735.0 L 691.0 738.0 L 714.0 744.0 L 716.0 746.0 L 762.0 760.0 L 764.0 762.0 L 776.0 765.0 L 794.0 773.0 L 827.0 792.0 L 843.0 807.0 L 854.0 824.0 L 865.0 846.0 L 877.0 878.0 L 885.0 905.0 L 885.0 910.0 L 891.0 933.0 L 902.0 1000.0 L 906.0 1013.0 L 907.0 1023.0 L 913.0 1023.0 L 909.0 1002.0 L 907.0 998.0 L 906.0 986.0 L 904.0 982.0 L 904.0 975.0 L 900.0 953.0 L 898.0 949.0 L 896.0 932.0 L 894.0 930.0 L 893.0 917.0 L 883.0 877.0 L 880.0 872.0 L 879.0 865.0 L 875.0 861.0 L 874.0 853.0 L 865.0 833.0 L 846.0 800.0 L 836.0 790.0 L 833.0 790.0 L 832.0 787.0 L 829.0 786.0 L 827.0 783.0 L 800.0 768.0 L 793.0 767.0 L 791.0 764.0 L 786.0 764.0 L 785.0 762.0 L 776.0 760.0 L 753.0 751.0 L 744.0 750.0 L 741.0 747.0 L 705.0 735.0 L 698.0 735.0 L 696.0 732.0 L 678.0 726.0 L 664.0 724.0 L 658.0 719.0 Z M 428.0 700.0 L 444.0 723.0 L 460.0 743.0 L 464.0 746.0 L 434.0 706.0 Z M 338.0 693.0 L 323.0 698.0 L 321.0 701.0 L 316.0 701.0 L 315.0 704.0 L 310.0 704.0 L 306.0 706.0 L 304.0 709.0 L 292.0 712.0 L 291.0 714.0 L 281.0 719.0 L 268.0 723.0 L 262.0 727.0 L 244.0 734.0 L 243.0 736.0 L 240.0 736.0 L 236.0 739.0 L 233.0 739.0 L 218.0 747.0 L 209.0 750.0 L 197.0 758.0 L 190.0 759.0 L 166.0 770.0 L 145.0 785.0 L 129.0 803.0 L 115.0 828.0 L 104.0 859.0 L 99.0 878.0 L 84.0 955.0 L 78.0 999.0 L 78.0 1008.0 L 75.0 1023.0 L 81.0 1023.0 L 84.0 996.0 L 93.0 947.0 L 95.0 927.0 L 97.0 923.0 L 103.0 890.0 L 110.0 862.0 L 118.0 838.0 L 137.0 805.0 L 155.0 788.0 L 170.0 777.0 L 201.0 764.0 L 253.0 739.0 L 258.0 738.0 L 313.0 711.0 L 325.0 707.0 L 339.0 700.0 Z M 607.0 651.0 L 607.0 657.0 L 619.0 673.0 L 632.0 708.0 L 636.0 714.0 L 633.0 702.0 L 628.0 691.0 L 628.0 685.0 L 625.0 677.0 L 614.0 656.0 L 612.0 656.0 Z M 387.0 608.0 L 387.0 628.0 L 389.0 634.0 L 406.0 658.0 L 411.0 662.0 L 416.0 672.0 L 435.0 697.0 L 438.0 699.0 L 438.0 701.0 L 485.0 761.0 L 505.0 783.0 L 532.0 796.0 L 543.0 806.0 L 563.0 842.0 L 567.0 841.0 L 579.0 825.0 L 589.0 805.0 L 594.0 790.0 L 598.0 769.0 L 601.0 725.0 L 598.0 700.0 L 597.0 658.0 L 599.0 657.0 L 599.0 655.0 L 597.0 654.0 L 597.0 649.0 L 600.0 646.0 L 600.0 640.0 L 586.0 658.0 L 561.0 680.0 L 539.0 690.0 L 528.0 692.0 L 510.0 692.0 L 489.0 688.0 L 470.0 680.0 L 447.0 665.0 L 444.0 665.0 L 437.0 657.0 L 416.0 639.0 L 411.0 638.0 L 403.0 626.0 Z M 553.0 704.0 L 553.0 706.0 L 541.0 716.0 L 530.0 718.0 L 513.0 715.0 L 508.0 711.0 L 509.0 707.0 L 515.0 707.0 L 523.0 710.0 L 538.0 709.0 L 547.0 702.0 L 551.0 702.0 Z M 379.0 604.0 L 377.0 604.0 L 373.0 608.0 L 366.0 625.0 L 366.0 629.0 L 364.0 631.0 L 359.0 648.0 L 357.0 650.0 L 352.0 667.0 L 348.0 675.0 L 348.0 694.0 L 346.0 695.0 L 347.0 697.0 L 359.0 661.0 L 363.0 654.0 L 368.0 637.0 L 371.0 632.0 L 375.0 617.0 L 379.0 613.0 Z M 669.0 433.0 L 667.0 434.0 L 667.0 448.0 L 662.0 450.0 L 661.0 454.0 L 659.0 455.0 L 663.0 461.0 L 672.0 454.0 L 675.0 446.0 L 675.0 439.0 Z M 647.0 433.0 L 645.0 434.0 L 642.0 446.0 L 632.0 457.0 L 629.0 458.0 L 627.0 461.0 L 624.0 461.0 L 623.0 463.0 L 614.0 464.0 L 610.0 466.0 L 618.0 466.0 L 628.0 463.0 L 638.0 455.0 L 645.0 446.0 Z M 481.0 423.0 L 481.0 440.0 L 476.0 454.0 L 469.0 465.0 L 466.0 465.0 L 455.0 472.0 L 466.0 469.0 L 476.0 459.0 L 482.0 444.0 Z M 472.0 408.0 L 440.0 409.0 L 445.0 416.0 L 445.0 423.0 L 440.0 429.0 L 431.0 430.0 L 424.0 424.0 L 423.0 417.0 L 427.0 410.0 L 384.0 413.0 L 385.0 443.0 L 387.0 454.0 L 396.0 463.0 L 416.0 469.0 L 434.0 469.0 L 455.0 464.0 L 456.0 461.0 L 464.0 458.0 L 465.0 454.0 L 468.0 453.0 L 472.0 444.0 Z M 511.0 403.0 L 497.0 407.0 L 497.0 453.0 L 495.0 462.0 L 492.0 467.0 L 481.0 478.0 L 481.0 480.0 L 484.0 480.0 L 486.0 482.0 L 486.0 484.0 L 481.0 487.0 L 481.0 496.0 L 486.0 500.0 L 491.0 498.0 L 501.0 498.0 L 511.0 504.0 L 520.0 505.0 L 528.0 501.0 L 531.0 497.0 L 535.0 496.0 L 535.0 480.0 L 529.0 466.0 L 529.0 461.0 L 524.0 448.0 L 524.0 442.0 L 521.0 431.0 L 520.0 416.0 L 527.0 411.0 L 526.0 403.0 Z M 638.0 399.0 L 593.0 401.0 L 591.0 403.0 L 596.0 407.0 L 597.0 414.0 L 592.0 421.0 L 586.0 424.0 L 580.0 423.0 L 575.0 415.0 L 575.0 408.0 L 580.0 402.0 L 552.0 404.0 L 551.0 422.0 L 555.0 448.0 L 565.0 456.0 L 580.0 460.0 L 608.0 459.0 L 609.0 457.0 L 625.0 453.0 L 633.0 446.0 L 639.0 433.0 Z M 293.0 409.0 L 291.0 417.0 L 292.0 434.0 L 296.0 435.0 L 295.0 444.0 L 301.0 457.0 L 304.0 458.0 L 305.0 464.0 L 308.0 467.0 L 308.0 471.0 L 312.0 475.0 L 312.0 484.0 L 315.0 495.0 L 315.0 512.0 L 318.0 514.0 L 318.0 518.0 L 320.0 520.0 L 323.0 520.0 L 325.0 524.0 L 335.0 527.0 L 340.0 526.0 L 347.0 521.0 L 351.0 511.0 L 346.0 485.0 L 347.0 482.0 L 351.0 480.0 L 354.0 483.0 L 356.0 501.0 L 362.0 531.0 L 365.0 535.0 L 365.0 545.0 L 372.0 568.0 L 377.0 573.0 L 377.0 576.0 L 388.0 588.0 L 390.0 588.0 L 395.0 595.0 L 399.0 597.0 L 401.0 600.0 L 403.0 600.0 L 412.0 609.0 L 441.0 631.0 L 443.0 631.0 L 445.0 634.0 L 470.0 650.0 L 492.0 655.0 L 529.0 655.0 L 547.0 652.0 L 560.0 647.0 L 565.0 644.0 L 568.0 640.0 L 572.0 639.0 L 586.0 625.0 L 591.0 617.0 L 594.0 616.0 L 629.0 577.0 L 630.0 573.0 L 635.0 568.0 L 635.0 564.0 L 638.0 562.0 L 643.0 547.0 L 645.0 530.0 L 644.0 519.0 L 646.0 517.0 L 650.0 479.0 L 650.0 474.0 L 648.0 473.0 L 648.0 471.0 L 651.0 469.0 L 651.0 467.0 L 644.0 473.0 L 633.0 478.0 L 611.0 484.0 L 575.0 483.0 L 555.0 475.0 L 546.0 469.0 L 550.0 478.0 L 553.0 481.0 L 554.0 496.0 L 552.0 501.0 L 527.0 519.0 L 512.0 520.0 L 498.0 516.0 L 496.0 514.0 L 489.0 513.0 L 481.0 509.0 L 473.0 501.0 L 473.0 488.0 L 476.0 482.0 L 468.0 488.0 L 449.0 492.0 L 419.0 493.0 L 408.0 491.0 L 406.0 489.0 L 394.0 486.0 L 373.0 474.0 L 368.0 469.0 L 369.0 465.0 L 367.0 464.0 L 367.0 461.0 L 362.0 450.0 L 361.0 433.0 L 359.0 431.0 L 359.0 407.0 L 350.0 407.0 L 348.0 437.0 L 345.0 439.0 L 339.0 436.0 L 336.0 419.0 L 323.0 402.0 L 317.0 403.0 L 315.0 399.0 L 309.0 397.0 L 297.0 403.0 Z M 545.0 571.0 L 545.0 573.0 L 540.0 578.0 L 536.0 578.0 L 531.0 581.0 L 525.0 582.0 L 507.0 581.0 L 500.0 579.0 L 498.0 577.0 L 498.0 574.0 L 502.0 571.0 L 514.0 574.0 L 525.0 574.0 L 534.0 572.0 L 539.0 569.0 L 543.0 569.0 Z M 580.0 537.0 L 580.0 539.0 L 575.0 544.0 L 559.0 553.0 L 554.0 554.0 L 552.0 556.0 L 528.0 561.0 L 508.0 562.0 L 487.0 560.0 L 456.0 552.0 L 450.0 548.0 L 450.0 545.0 L 454.0 543.0 L 464.0 547.0 L 469.0 547.0 L 471.0 549.0 L 480.0 550.0 L 488.0 553.0 L 524.0 554.0 L 538.0 552.0 L 555.0 547.0 L 567.0 541.0 L 575.0 535.0 L 578.0 535.0 Z M 401.0 531.0 L 407.0 533.0 L 407.0 537.0 L 409.0 538.0 L 409.0 541.0 L 412.0 544.0 L 412.0 552.0 L 410.0 554.0 L 408.0 554.0 L 404.0 549.0 L 400.0 538.0 Z M 443.0 530.0 L 445.0 534.0 L 439.0 542.0 L 438.0 550.0 L 436.0 552.0 L 433.0 552.0 L 431.0 549.0 L 433.0 539.0 L 440.0 530.0 Z M 584.0 521.0 L 588.0 521.0 L 594.0 528.0 L 596.0 532.0 L 595.0 541.0 L 590.0 540.0 L 587.0 530.0 L 582.0 525.0 Z M 623.0 518.0 L 626.0 521.0 L 624.0 532.0 L 621.0 540.0 L 619.0 542.0 L 616.0 542.0 L 614.0 538.0 L 617.0 531.0 L 618.0 522.0 L 621.0 518.0 Z M 301.0 416.0 L 316.0 418.0 L 329.0 431.0 L 332.0 432.0 L 332.0 435.0 L 336.0 443.0 L 341.0 448.0 L 340.0 467.0 L 337.0 470.0 L 333.0 468.0 L 333.0 459.0 L 329.0 451.0 L 324.0 453.0 L 321.0 459.0 L 321.0 466.0 L 325.0 474.0 L 331.0 479.0 L 338.0 481.0 L 338.0 487.0 L 329.0 486.0 L 324.0 483.0 L 319.0 477.0 L 315.0 476.0 L 315.0 473.0 L 312.0 470.0 L 312.0 463.0 L 314.0 462.0 L 314.0 456.0 L 317.0 448.0 L 325.0 444.0 L 325.0 440.0 L 323.0 434.0 L 312.0 425.0 L 301.0 423.0 L 299.0 421.0 L 299.0 418.0 Z M 447.0 392.0 L 420.0 393.0 L 409.0 395.0 L 441.0 394.0 Z M 522.0 385.0 L 506.0 385.0 L 486.0 390.0 L 475.0 391.0 L 495.0 390.0 L 504.0 387.0 Z M 569.0 386.0 L 591.0 386.0 L 601.0 384.0 L 584.0 384.0 Z M 685.0 382.0 L 677.0 382.0 L 672.0 384.0 L 667.0 395.0 L 660.0 404.0 L 663.0 415.0 L 661.0 420.0 L 663.0 420.0 L 668.0 412.0 L 668.0 409.0 L 672.0 405.0 L 685.0 398.0 L 687.0 398.0 L 690.0 401.0 L 690.0 404.0 L 679.0 410.0 L 671.0 420.0 L 671.0 425.0 L 677.0 425.0 L 680.0 429.0 L 681.0 434.0 L 683.0 435.0 L 682.0 450.0 L 677.0 459.0 L 677.0 462.0 L 671.0 467.0 L 662.0 467.0 L 659.0 464.0 L 655.0 496.0 L 655.0 507.0 L 659.0 510.0 L 669.0 509.0 L 679.0 501.0 L 679.0 498.0 L 681.0 496.0 L 681.0 468.0 L 684.0 456.0 L 690.0 443.0 L 690.0 438.0 L 694.0 433.0 L 698.0 418.0 L 698.0 401.0 L 696.0 398.0 L 696.0 394.0 L 693.0 388.0 Z M 391.0 387.0 L 394.0 388.0 L 409.0 386.0 L 463.0 384.0 L 463.0 382.0 L 450.0 381.0 L 448.0 379.0 L 436.0 377.0 L 414.0 377.0 L 398.0 382.0 Z M 559.0 378.0 L 615.0 376.0 L 619.0 374.0 L 612.0 373.0 L 610.0 370.0 L 604.0 369.0 L 585.0 369.0 L 584.0 373.0 L 576.0 373.0 L 573.0 375.0 L 565.0 374.0 L 560.0 376.0 Z M 311.0 297.0 L 309.0 305.0 L 309.0 335.0 L 312.0 357.0 L 314.0 357.0 L 311.0 339.0 Z M 351.0 399.0 L 359.0 399.0 L 360.0 390.0 L 363.0 388.0 L 384.0 388.0 L 386.0 380.0 L 395.0 371.0 L 397.0 371.0 L 400.0 368.0 L 417.0 363.0 L 435.0 362.0 L 460.0 366.0 L 469.0 373.0 L 470.0 380.0 L 467.0 383.0 L 471.0 384.0 L 486.0 383.0 L 487.0 381.0 L 493.0 381.0 L 504.0 378.0 L 526.0 378.0 L 531.0 380.0 L 534.0 380.0 L 536.0 378.0 L 540.0 378.0 L 541.0 380.0 L 550.0 379.0 L 545.0 375.0 L 545.0 371.0 L 549.0 366.0 L 560.0 360.0 L 582.0 355.0 L 608.0 356.0 L 626.0 366.0 L 633.0 375.0 L 636.0 375.0 L 637.0 373.0 L 639.0 373.0 L 640.0 375.0 L 649.0 374.0 L 649.0 360.0 L 648.0 356.0 L 639.0 344.0 L 626.0 338.0 L 621.0 333.0 L 602.0 302.0 L 590.0 289.0 L 589.0 296.0 L 591.0 303.0 L 591.0 315.0 L 587.0 316.0 L 571.0 299.0 L 560.0 290.0 L 525.0 270.0 L 514.0 265.0 L 488.0 257.0 L 462.0 257.0 L 415.0 273.0 L 392.0 274.0 L 383.0 290.0 L 382.0 334.0 L 377.0 344.0 L 356.0 370.0 L 351.0 385.0 Z M 319.0 251.0 L 317.0 251.0 L 308.0 262.0 L 306.0 273.0 L 303.0 277.0 L 302.0 290.0 L 304.0 288.0 L 305.0 280.0 L 311.0 263.0 L 319.0 253.0 Z M 334.0 219.0 L 332.0 218.0 L 319.0 225.0 L 309.0 236.0 L 307.0 244.0 L 311.0 242.0 L 323.0 229.0 L 334.0 224.0 Z M 343.0 184.0 L 341.0 187.0 L 340.0 201.0 L 325.0 201.0 L 325.0 204.0 L 341.0 204.0 L 341.0 198.0 L 344.0 188.0 Z M 589.0 152.0 L 591.0 154.0 L 601.0 155.0 L 615.0 160.0 L 601.0 153.0 L 592.0 151.0 Z M 495.0 131.0 L 500.0 132.0 L 519.0 128.0 L 543.0 128.0 L 574.0 134.0 L 559.0 128.0 L 552.0 128.0 L 549.0 126.0 L 537.0 124.0 L 514.0 124.0 L 507.0 125.0 L 506.0 127.0 L 500.0 126.0 L 497.0 127.0 Z M 490.0 115.0 L 459.0 119.0 L 452.0 122.0 L 446.0 122.0 L 440.0 125.0 L 435.0 125.0 L 400.0 140.0 L 392.0 145.0 L 387.0 151.0 L 380.0 154.0 L 367.0 167.0 L 365.0 175.0 L 360.0 177.0 L 360.0 179.0 L 358.0 180.0 L 354.0 188.0 L 354.0 192.0 L 357.0 191.0 L 357.0 189.0 L 380.0 161.0 L 403.0 144.0 L 425.0 133.0 L 450.0 125.0 L 472.0 121.0 L 474.0 119.0 L 489.0 118.0 Z" fill="#eef6f9" fill-rule="evenodd" clip-rule="evenodd"/>
<path d="M 291.0 1007.0 L 292.0 1023.0 L 295.0 1023.0 L 293.0 1022.0 L 293.0 1019.0 L 295.0 1018.0 L 295.0 1013.0 L 292.0 1012.0 L 292.0 1007.0 Z M 579.0 997.0 L 579.0 1003.0 L 582.0 1011.0 L 587.0 1013.0 L 582.0 1008.0 L 580.0 1004.0 L 580.0 997.0 Z M 914.0 992.0 L 918.0 1016.0 L 919.0 1016.0 L 917.0 1006.0 L 918.0 1003.0 L 917.0 992.0 Z M 282.0 992.0 L 282.0 1002.0 L 283.0 1005.0 L 284.0 1005.0 L 283.0 992.0 Z M 800.0 988.0 L 801.0 1023.0 L 804.0 1023.0 L 804.0 1017.0 L 802.0 1016.0 L 802.0 1009.0 L 804.0 1008.0 L 804.0 994.0 L 801.0 993.0 L 801.0 988.0 Z M 565.0 985.0 L 566.0 997.0 L 567.0 998.0 L 567.0 1007.0 L 568.0 1007.0 L 568.0 998.0 L 567.0 997.0 L 568.0 988.0 Z M 73.0 985.0 L 72.0 985.0 L 72.0 990.0 L 71.0 991.0 L 70.0 1004.0 L 71.0 1004.0 Z M 907.0 954.0 L 910.0 973.0 L 911.0 973.0 L 910.0 955.0 Z M 554.0 954.0 L 555.0 971.0 L 556.0 972.0 L 555.0 978.0 L 556.0 979.0 L 556.0 984.0 L 558.0 984.0 L 556.0 961.0 L 555.0 960.0 L 555.0 954.0 Z M 285.0 954.0 L 286.0 965.0 L 288.0 965.0 L 288.0 962.0 L 286.0 959.0 L 286.0 954.0 Z M 791.0 951.0 L 791.0 975.0 L 792.0 976.0 L 791.0 982.0 L 792.0 985.0 L 793.0 985.0 L 792.0 951.0 Z M 798.0 944.0 L 798.0 952.0 L 799.0 956.0 L 800.0 956.0 L 799.0 954.0 L 799.0 944.0 Z M 790.0 934.0 L 790.0 944.0 L 791.0 944.0 L 791.0 934.0 Z M 81.0 934.0 L 77.0 938.0 L 77.0 944.0 L 78.0 945.0 L 77.0 953.0 L 78.0 953.0 L 79.0 941.0 Z M 273.0 931.0 L 274.0 941.0 L 276.0 944.0 L 276.0 948.0 L 277.0 948.0 L 274.0 931.0 Z M 558.0 923.0 L 559.0 937.0 L 560.0 937.0 L 560.0 928.0 L 559.0 923.0 Z M 276.0 912.0 L 279.0 925.0 L 280.0 925.0 L 280.0 916.0 L 278.0 916.0 L 277.0 912.0 Z M 897.0 905.0 L 901.0 921.0 L 903.0 935.0 L 904.0 935.0 L 902.0 925.0 L 902.0 911.0 L 898.0 908.0 L 898.0 905.0 Z M 92.0 879.0 L 91.0 879.0 L 89.0 890.0 L 87.0 894.0 L 87.0 898.0 L 85.0 899.0 L 85.0 907.0 L 86.0 907.0 L 88.0 893.0 Z M 575.0 878.0 L 572.0 882.0 L 573.0 889.0 L 575.0 891.0 L 583.0 892.0 L 583.0 890.0 L 576.0 889.0 L 573.0 886.0 L 573.0 883.0 L 576.0 879.0 Z M 889.0 874.0 L 894.0 894.0 L 895.0 894.0 L 895.0 888.0 L 893.0 886.0 L 890.0 874.0 Z M 566.0 866.0 L 564.0 867.0 L 561.0 873.0 L 563.0 872.0 Z M 95.0 865.0 L 93.0 865.0 L 92.0 875.0 L 93.0 875.0 Z M 882.0 855.0 L 887.0 869.0 L 888.0 869.0 L 887.0 859.0 L 885.0 859.0 Z M 587.0 853.0 L 585.0 853.0 L 577.0 857.0 L 577.0 858.0 L 584.0 857.0 Z M 560.0 852.0 L 559.0 852.0 L 558.0 857.0 L 555.0 860.0 L 555.0 864.0 L 551.0 874.0 L 551.0 878.0 L 548.0 879.0 L 549.0 881.0 L 548.0 884.0 L 549.0 889.0 L 548.0 892.0 L 548.0 906.0 L 549.0 910.0 L 548.0 912.0 L 550.0 916.0 L 550.0 921.0 L 551.0 921.0 L 550.0 917.0 L 550.0 884.0 L 553.0 871.0 L 558.0 857.0 L 560.0 855.0 Z M 608.0 843.0 L 599.0 848.0 L 590.0 851.0 L 590.0 852.0 L 595.0 851.0 L 602.0 847.0 L 606.0 847.0 Z M 103.0 840.0 L 100.0 844.0 L 99.0 851.0 L 100.0 851.0 Z M 110.0 821.0 L 108.0 821.0 L 107.0 828.0 L 109.0 826.0 Z M 866.0 820.0 L 871.0 831.0 L 872.0 831.0 L 867.0 820.0 Z M 632.0 817.0 L 631.0 817.0 L 626.0 827.0 L 629.0 827.0 L 629.0 824.0 Z M 379.0 815.0 L 381.0 824.0 L 383.0 825.0 L 380.0 815.0 Z M 673.0 814.0 L 676.0 817.0 L 676.0 819.0 L 682.0 819.0 L 682.0 818.0 Z M 509.0 805.0 L 515.0 810.0 L 515.0 814.0 L 514.0 815.0 L 508.0 814.0 L 508.0 815.0 L 515.0 816.0 L 516.0 815.0 L 515.0 808.0 Z M 526.0 802.0 L 526.0 804.0 L 530.0 805.0 L 534.0 809.0 L 534.0 812.0 L 539.0 817.0 L 539.0 820.0 L 543.0 823.0 L 541.0 817.0 L 535.0 808.0 L 531.0 804.0 Z M 850.0 793.0 L 851.0 796.0 L 856.0 802.0 L 857.0 799.0 L 852.0 795.0 L 852.0 793.0 Z M 509.0 793.0 L 511.0 795.0 L 511.0 798.0 L 521.0 804.0 L 522.0 801.0 L 524.0 801.0 L 524.0 800.0 L 521.0 800.0 L 520.0 798.0 Z M 128.0 793.0 L 123.0 797.0 L 123.0 799.0 L 125.0 798.0 Z M 639.0 791.0 L 638.0 791.0 L 638.0 798.0 L 635.0 809.0 L 636.0 809.0 L 636.0 805.0 L 639.0 796.0 Z M 459.0 791.0 L 456.0 791.0 L 453.0 796.0 L 450.0 797.0 L 447.0 801.0 L 445.0 801.0 L 443.0 804.0 L 435.0 810.0 L 428.0 812.0 L 427.0 816.0 L 424.0 817.0 L 418.0 823.0 L 416.0 823.0 L 416.0 825.0 L 438.0 810.0 L 454.0 797.0 L 457.0 793.0 L 459.0 793.0 Z M 491.0 784.0 L 477.0 788.0 L 477.0 789.0 L 484.0 788.0 L 485.0 786.0 L 491.0 785.0 Z M 639.0 782.0 L 639.0 787.0 L 640.0 787.0 L 643.0 784.0 Z M 837.0 781.0 L 840.0 785.0 L 848.0 791.0 L 846.0 789.0 L 846.0 786.0 L 842.0 785.0 L 840.0 782.0 Z M 650.0 780.0 L 653.0 785.0 L 667.0 798.0 L 660.0 788.0 L 660.0 786.0 L 657.0 786.0 L 653.0 781.0 Z M 364.0 773.0 L 366.0 778.0 L 366.0 783.0 L 368.0 783.0 L 365.0 773.0 Z M 480.0 765.0 L 479.0 765.0 L 479.0 768.0 L 481.0 769.0 L 481.0 777.0 L 479.0 779.0 L 476.0 779.0 L 469.0 784.0 L 465.0 785.0 L 464.0 787.0 L 461.0 787.0 L 459.0 785.0 L 461.0 787.0 L 461.0 790.0 L 478.0 780.0 L 489.0 777.0 Z M 466.0 753.0 L 465.0 758.0 L 471.0 757.0 L 468.0 753.0 Z M 778.0 752.0 L 778.0 753.0 L 781.0 753.0 L 791.0 757.0 L 791.0 756.0 L 784.0 753.0 Z M 356.0 750.0 L 357.0 756.0 L 360.0 762.0 L 361.0 762.0 L 357.0 750.0 Z M 198.0 748.0 L 205.0 745.0 L 205.0 744.0 L 203.0 745.0 L 199.0 744.0 Z M 651.0 731.0 L 653.0 736.0 L 657.0 741.0 L 654.0 734.0 L 654.0 731.0 Z M 642.0 730.0 L 643.0 739.0 L 646.0 742.0 L 646.0 744.0 L 648.0 744.0 L 653.0 750.0 L 653.0 758.0 L 656.0 758.0 L 661.0 762.0 L 665.0 772.0 L 667.0 773.0 L 667.0 775.0 L 669.0 777.0 L 670.0 782.0 L 672.0 782.0 L 674.0 786.0 L 677.0 788.0 L 677.0 790.0 L 679.0 791.0 L 679.0 793.0 L 682.0 794.0 L 684.0 800.0 L 690.0 806.0 L 691.0 810.0 L 690.0 811.0 L 683.0 810.0 L 682.0 809.0 L 683.0 805.0 L 682.0 805.0 L 681.0 808.0 L 679.0 808.0 L 675.0 804.0 L 674.0 799.0 L 670.0 802.0 L 680.0 810.0 L 690.0 815.0 L 697.0 817.0 L 694.0 810.0 L 670.0 775.0 L 669.0 772.0 L 662.0 763.0 L 659.0 757.0 L 655.0 754.0 L 655.0 751.0 L 653.0 750.0 L 653.0 748.0 L 647.0 739.0 L 643.0 730.0 Z M 230.0 733.0 L 234.0 732.0 L 238.0 729.0 L 233.0 729.0 Z M 654.0 726.0 L 657.0 729.0 L 664.0 730.0 L 664.0 729.0 Z M 636.0 720.0 L 638.0 722.0 L 638.0 726.0 L 641.0 727.0 L 639.0 721.0 Z M 345.0 718.0 L 350.0 733.0 L 351.0 733.0 L 347.0 720.0 Z M 280.0 710.0 L 274.0 711.0 L 273.0 713.0 L 265.0 715.0 L 263.0 718.0 L 280.0 711.0 Z M 628.0 705.0 L 628.0 708.0 L 631.0 712.0 L 632.0 709.0 L 630.0 705.0 Z M 427.0 705.0 L 434.0 714.0 L 434.0 712.0 L 432.0 711.0 L 431.0 706.0 Z M 348.0 701.0 L 351.0 713.0 L 358.0 731.0 L 358.0 734.0 L 360.0 737.0 L 382.0 802.0 L 384.0 803.0 L 384.0 807.0 L 394.0 835.0 L 399.0 835.0 L 414.0 827.0 L 414.0 826.0 L 411.0 825.0 L 410.0 828.0 L 405.0 828.0 L 405.0 830.0 L 400.0 833.0 L 395.0 832.0 L 391.0 818.0 L 388.0 815.0 L 387.0 806.0 L 384.0 803.0 L 383.0 796.0 L 380.0 792.0 L 380.0 785.0 L 378.0 783.0 L 378.0 781.0 L 376.0 780.0 L 375.0 775.0 L 373.0 773.0 L 372.0 761.0 L 368.0 759.0 L 367.0 750.0 L 363.0 744.0 L 363.0 741.0 L 360.0 736.0 L 359.0 727.0 L 357.0 725.0 L 357.0 716.0 L 356.0 714.0 L 352.0 713.0 L 351.0 703.0 L 350.0 701.0 Z M 308.0 697.0 L 304.0 699.0 L 298.0 699.0 L 296.0 700.0 L 296.0 703.0 L 306.0 699.0 Z M 638.0 692.0 L 638.0 697.0 L 641.0 706.0 L 645.0 707.0 L 645.0 705.0 L 642.0 705.0 L 640.0 702.0 L 639.0 692.0 Z M 621.0 684.0 L 620.0 687.0 L 624.0 691.0 L 623.0 686.0 Z M 488.0 685.0 L 488.0 686.0 L 502.0 689.0 L 502.0 688.0 L 499.0 688.0 L 495.0 685.0 L 491.0 684.0 Z M 634.0 681.0 L 636.0 689.0 L 637.0 689.0 L 637.0 681.0 Z M 341.0 675.0 L 340.0 675.0 L 338.0 682.0 L 331.0 686.0 L 331.0 687.0 L 338.0 684.0 Z M 569.0 671.0 L 559.0 675.0 L 559.0 677.0 L 556.0 678.0 L 556.0 679.0 L 560.0 679.0 L 562.0 675.0 L 565.0 675.0 Z M 463.0 666.0 L 461.0 666.0 L 460.0 668.0 L 457.0 668.0 L 457.0 670.0 L 462.0 671.0 Z M 627.0 662.0 L 627.0 666.0 L 629.0 668.0 L 629.0 662.0 Z M 606.0 658.0 L 605.0 658.0 L 605.0 696.0 L 606.0 697.0 L 606.0 708.0 L 607.0 709.0 L 608.0 737.0 L 607.0 738.0 L 607.0 754.0 L 606.0 755.0 L 604.0 777.0 L 600.0 794.0 L 592.0 816.0 L 586.0 827.0 L 569.0 851.0 L 568.0 854.0 L 570.0 854.0 L 582.0 847.0 L 591.0 844.0 L 605.0 837.0 L 606.0 835.0 L 608.0 835.0 L 612.0 832.0 L 621.0 822.0 L 627.0 811.0 L 632.0 792.0 L 632.0 775.0 L 634.0 773.0 L 638.0 773.0 L 645.0 777.0 L 644.0 773.0 L 637.0 773.0 L 636.0 771.0 L 631.0 773.0 L 629.0 802.0 L 627.0 803.0 L 626.0 810.0 L 624.0 811.0 L 623.0 816.0 L 620.0 819.0 L 620.0 821.0 L 619.0 822.0 L 614.0 821.0 L 615.0 823.0 L 614.0 827.0 L 611.0 828.0 L 606.0 835.0 L 603.0 835.0 L 601.0 838.0 L 599.0 839.0 L 589.0 839.0 L 586.0 842.0 L 582.0 843.0 L 580.0 846.0 L 577.0 846.0 L 576.0 843.0 L 581.0 841.0 L 584.0 836.0 L 587.0 834.0 L 587.0 828.0 L 589.0 827.0 L 589.0 824.0 L 592.0 820.0 L 593.0 815.0 L 595.0 814.0 L 597.0 809.0 L 599.0 808.0 L 600.0 799.0 L 603.0 793.0 L 603.0 787.0 L 606.0 786.0 L 605.0 781.0 L 607.0 779.0 L 607.0 759.0 L 609.0 751.0 L 609.0 714.0 L 608.0 713.0 L 608.0 701.0 L 606.0 695.0 L 606.0 689.0 L 611.0 687.0 L 611.0 686.0 L 607.0 685.0 L 607.0 670.0 L 609.0 661.0 Z M 459.0 652.0 L 459.0 654.0 L 464.0 659.0 L 470.0 661.0 L 469.0 665.0 L 472.0 665.0 L 474.0 662.0 L 528.0 664.0 L 534.0 662.0 L 543.0 663.0 L 545.0 661.0 L 550.0 661.0 L 555.0 663.0 L 556.0 660.0 L 559.0 660.0 L 559.0 656.0 L 561.0 655.0 L 560.0 654.0 L 551.0 658.0 L 531.0 662.0 L 489.0 662.0 L 474.0 659.0 Z M 424.0 641.0 L 426.0 647.0 L 431.0 650.0 L 431.0 647.0 L 433.0 645.0 L 429.0 645.0 L 426.0 643.0 L 426.0 641.0 Z M 355.0 636.0 L 351.0 640.0 L 351.0 646.0 L 349.0 651.0 L 350.0 651.0 Z M 373.0 631.0 L 372.0 631.0 L 370.0 636.0 L 371.0 639.0 L 373.0 639.0 L 374.0 637.0 Z M 608.0 628.0 L 608.0 638.0 L 615.0 645.0 L 614.0 638.0 L 609.0 637.0 L 609.0 628.0 Z M 424.0 627.0 L 425.0 630.0 L 430.0 634.0 L 430.0 637.0 L 428.0 638.0 L 428.0 640.0 L 431.0 641.0 L 433.0 639.0 L 439.0 640.0 L 441.0 642.0 L 441.0 644.0 L 450.0 646.0 L 438.0 636.0 Z M 378.0 626.0 L 377.0 631.0 L 381.0 640.0 L 384.0 641.0 L 385.0 644.0 L 390.0 649.0 L 390.0 652.0 L 393.0 653.0 L 394.0 656.0 L 396.0 657.0 L 396.0 661.0 L 399.0 662.0 L 399.0 659.0 L 381.0 634.0 L 379.0 626.0 Z M 602.0 619.0 L 600.0 619.0 L 568.0 651.0 L 575.0 648.0 L 576.0 646.0 L 579.0 646.0 L 585.0 653.0 L 590.0 651.0 L 594.0 645.0 L 594.0 642.0 L 597.0 641.0 L 598.0 638.0 L 590.0 643.0 L 590.0 647.0 L 587.0 651.0 L 585.0 651.0 L 583.0 648.0 L 583.0 642.0 L 588.0 637.0 L 593.0 636.0 L 592.0 632.0 L 598.0 624.0 L 600.0 624.0 L 602.0 626.0 Z M 361.0 617.0 L 358.0 617.0 L 359.0 622.0 L 358.0 626.0 L 359.0 626.0 Z M 393.0 603.0 L 394.0 608.0 L 391.0 609.0 L 391.0 611.0 L 395.0 612.0 L 395.0 616.0 L 399.0 620.0 L 402.0 616.0 L 406.0 616.0 L 409.0 618.0 L 412.0 618.0 L 413.0 621.0 L 417.0 624.0 L 420.0 624.0 L 400.0 607.0 Z M 620.0 599.0 L 611.0 608.0 L 609.0 622.0 L 610.0 622.0 L 610.0 619.0 L 614.0 616.0 L 614.0 606.0 Z M 373.0 598.0 L 368.0 601.0 L 365.0 601.0 L 363.0 611.0 Z M 386.0 596.0 L 386.0 605.0 L 387.0 605.0 L 388.0 602.0 L 391.0 601.0 L 391.0 600.0 Z M 640.0 574.0 L 630.0 587.0 L 633.0 584.0 L 637.0 583.0 Z M 646.0 563.0 L 645.0 563.0 L 642.0 571.0 L 644.0 571.0 Z M 652.0 531.0 L 651.0 531.0 L 651.0 540.0 L 650.0 541.0 L 649.0 551.0 L 652.0 551.0 L 652.0 545.0 L 651.0 544.0 Z M 353.0 524.0 L 349.0 529.0 L 342.0 533.0 L 339.0 533.0 L 339.0 534.0 L 346.0 532.0 L 354.0 532.0 L 355.0 533.0 L 355.0 542.0 L 357.0 545.0 L 360.0 557.0 L 361.0 557.0 L 356.0 537.0 L 354.0 524.0 Z M 653.0 515.0 L 653.0 518.0 L 656.0 517.0 L 665.0 518.0 L 665.0 517.0 L 659.0 517.0 Z M 505.0 511.0 L 506.0 517.0 L 509.0 515.0 L 514.0 515.0 L 513.0 511.0 L 509.0 510.0 Z M 307.0 506.0 L 307.0 513.0 L 310.0 517.0 L 308.0 512.0 L 308.0 506.0 Z M 498.0 505.0 L 482.0 507.0 L 482.0 508.0 L 485.0 510.0 L 492.0 509.0 L 495.0 506.0 L 498.0 506.0 Z M 533.0 507.0 L 541.0 507.0 L 542.0 505.0 L 545.0 505.0 L 545.0 504.0 L 536.0 503.0 Z M 552.0 487.0 L 551.0 487.0 L 550.0 491.0 L 548.0 493.0 L 544.0 494.0 L 537.0 493.0 L 537.0 495.0 L 550.0 498.0 L 552.0 496.0 L 553.0 492.0 Z M 305.0 487.0 L 305.0 493.0 L 307.0 495.0 L 306.0 487.0 Z M 458.0 485.0 L 437.0 490.0 L 414.0 490.0 L 413.0 489.0 L 410.0 489.0 L 410.0 490.0 L 420.0 492.0 L 440.0 492.0 L 441.0 491.0 L 446.0 491.0 L 447.0 489.0 L 453.0 490.0 Z M 570.0 479.0 L 570.0 480.0 L 576.0 482.0 L 582.0 482.0 L 582.0 481.0 Z M 638.0 472.0 L 635.0 471.0 L 630.0 474.0 L 610.0 480.0 L 587.0 481.0 L 587.0 483.0 L 609.0 483.0 L 614.0 482.0 L 615.0 480.0 L 620.0 481.0 L 630.0 478.0 L 633.0 475.0 L 636.0 475.0 Z M 689.0 470.0 L 688.0 470.0 L 688.0 497.0 L 685.0 504.0 L 688.0 501.0 L 690.0 501.0 Z M 485.0 468.0 L 483.0 468.0 L 481.0 471.0 L 470.0 480.0 L 474.0 481.0 L 479.0 479.0 L 480.0 475.0 L 485.0 471.0 Z M 297.0 466.0 L 297.0 471.0 L 300.0 472.0 L 302.0 480.0 L 303.0 480.0 L 300.0 470.0 Z M 480.0 458.0 L 479.0 458.0 L 477.0 463.0 L 475.0 463.0 L 465.0 470.0 L 464.0 474.0 L 460.0 474.0 L 457.0 476.0 L 451.0 475.0 L 442.0 478.0 L 431.0 478.0 L 430.0 483.0 L 445.0 482.0 L 455.0 479.0 L 457.0 477.0 L 460.0 477.0 L 471.0 471.0 L 477.0 465.0 Z M 652.0 457.0 L 649.0 459.0 L 648.0 461.0 L 649.0 463.0 L 652.0 463.0 Z M 534.0 456.0 L 535.0 461.0 L 537.0 461.0 L 540.0 466.0 L 540.0 472.0 L 537.0 473.0 L 534.0 470.0 L 533.0 470.0 L 533.0 472.0 L 535.0 475.0 L 536.0 480.0 L 539.0 480.0 L 539.0 473.0 L 544.0 472.0 L 545.0 475.0 L 546.0 475.0 L 545.0 467.0 Z M 372.0 454.0 L 375.0 463.0 L 383.0 472.0 L 386.0 472.0 L 389.0 475.0 L 387.0 470.0 L 390.0 469.0 L 400.0 474.0 L 399.0 478.0 L 393.0 477.0 L 393.0 478.0 L 398.0 479.0 L 401.0 481.0 L 411.0 482.0 L 412.0 483.0 L 419.0 483.0 L 419.0 481.0 L 421.0 479.0 L 425.0 479.0 L 425.0 478.0 L 409.0 476.0 L 404.0 473.0 L 401.0 473.0 L 392.0 469.0 L 382.0 459.0 L 378.0 452.0 L 378.0 450.0 L 375.0 454.0 Z M 701.0 435.0 L 700.0 435.0 L 696.0 445.0 L 694.0 453.0 L 697.0 453.0 L 698.0 442.0 L 700.0 440.0 Z M 653.0 433.0 L 648.0 432.0 L 648.0 440.0 L 644.0 454.0 L 647.0 451.0 L 651.0 443.0 Z M 496.0 429.0 L 495.0 429.0 L 494.0 445.0 L 491.0 455.0 L 495.0 455.0 L 496.0 450.0 L 496.0 443.0 L 497.0 442.0 Z M 705.0 421.0 L 704.0 421.0 L 702.0 432.0 L 705.0 432.0 L 704.0 428.0 Z M 487.0 420.0 L 486.0 420.0 L 485.0 423.0 L 482.0 423.0 L 482.0 428.0 L 483.0 429.0 L 483.0 445.0 L 482.0 448.0 L 484.0 449.0 L 483.0 453.0 L 485.0 451.0 L 487.0 444.0 Z M 548.0 411.0 L 549.0 434.0 L 551.0 442.0 L 552.0 442.0 L 551.0 426.0 L 550.0 425.0 L 550.0 411.0 Z M 285.0 408.0 L 285.0 411.0 L 282.0 414.0 L 283.0 418.0 L 282.0 432.0 L 284.0 433.0 L 284.0 439.0 L 287.0 441.0 L 284.0 430.0 L 284.0 415.0 L 286.0 408.0 Z M 349.0 406.0 L 347.0 406.0 L 347.0 426.0 L 348.0 426.0 Z M 471.0 404.0 L 449.0 405.0 L 448.0 406.0 L 432.0 406.0 L 431.0 407.0 L 415.0 407.0 L 414.0 408.0 L 390.0 408.0 L 381.0 410.0 L 381.0 418.0 L 383.0 419.0 L 383.0 412.0 L 384.0 411.0 L 404.0 411.0 L 405.0 410.0 L 417.0 410.0 L 426.0 408.0 L 436.0 409.0 L 437.0 408.0 L 471.0 407.0 Z M 548.0 405.0 L 550.0 405.0 L 553.0 402.0 L 576.0 401.0 L 576.0 399.0 L 548.0 400.0 Z M 524.0 400.0 L 521.0 399.0 L 501.0 400.0 L 493.0 403.0 L 493.0 407.0 L 495.0 408.0 L 498.0 405.0 L 504.0 403.0 L 524.0 401.0 Z M 533.0 398.0 L 533.0 408.0 L 534.0 408.0 L 534.0 398.0 Z M 593.0 398.0 L 593.0 400.0 L 618.0 399.0 L 618.0 397.0 Z M 622.0 396.0 L 622.0 399.0 L 624.0 399.0 L 625.0 397.0 L 637.0 398.0 L 637.0 396.0 Z M 411.0 400.0 L 403.0 400.0 L 402.0 396.0 L 400.0 397.0 L 391.0 397.0 L 390.0 398.0 L 369.0 399.0 L 369.0 408.0 L 371.0 409.0 L 372.0 414.0 L 369.0 415.0 L 369.0 420.0 L 371.0 421.0 L 371.0 424.0 L 373.0 424.0 L 374.0 428.0 L 375.0 428.0 L 374.0 405.0 L 376.0 403.0 L 379.0 402.0 L 395.0 402.0 L 396.0 401.0 L 411.0 401.0 Z M 509.0 391.0 L 451.0 393.0 L 444.0 395.0 L 418.0 396.0 L 418.0 398.0 L 416.0 400.0 L 475.0 397.0 L 479.0 400.0 L 479.0 407.0 L 486.0 406.0 L 486.0 400.0 L 489.0 397.0 L 502.0 393.0 L 509.0 392.0 Z M 519.0 392.0 L 519.0 393.0 L 524.0 393.0 L 531.0 395.0 L 532.0 391.0 L 538.0 391.0 L 540.0 393.0 L 539.0 398.0 L 539.0 411.0 L 540.0 412.0 L 539.0 420.0 L 536.0 421.0 L 534.0 419.0 L 535.0 436.0 L 538.0 447.0 L 541.0 453.0 L 543.0 454.0 L 545.0 459.0 L 553.0 466.0 L 557.0 467.0 L 557.0 463.0 L 560.0 462.0 L 572.0 467.0 L 571.0 470.0 L 564.0 469.0 L 565.0 471.0 L 571.0 473.0 L 601.0 474.0 L 602.0 473.0 L 614.0 472.0 L 627.0 468.0 L 638.0 461.0 L 637.0 460.0 L 633.0 461.0 L 627.0 465.0 L 614.0 467.0 L 612.0 471.0 L 604.0 472.0 L 601.0 469.0 L 586.0 469.0 L 585.0 468.0 L 580.0 468.0 L 579.0 466.0 L 574.0 466.0 L 564.0 463.0 L 557.0 459.0 L 547.0 448.0 L 546.0 448.0 L 546.0 453.0 L 543.0 454.0 L 538.0 444.0 L 539.0 439.0 L 543.0 438.0 L 542.0 420.0 L 541.0 419.0 L 541.0 395.0 L 548.0 393.0 L 564.0 393.0 L 564.0 392.0 L 561.0 391.0 L 560.0 388.0 L 556.0 389.0 L 530.0 389.0 L 528.0 388.0 L 524.0 392.0 Z M 313.0 388.0 L 301.0 389.0 L 296.0 392.0 L 292.0 397.0 L 302.0 391.0 L 307.0 390.0 L 313.0 391.0 Z M 669.0 386.0 L 667.0 386.0 L 665.0 388.0 L 661.0 400.0 L 663.0 399.0 L 664.0 393.0 L 667.0 391.0 Z M 608.0 388.0 L 606.0 386.0 L 581.0 387.0 L 578.0 388.0 L 578.0 392.0 L 603.0 391.0 L 608.0 390.0 Z M 615.0 389.0 L 615.0 390.0 L 643.0 389.0 L 646.0 397.0 L 648.0 397.0 L 651.0 401.0 L 651.0 403.0 L 652.0 403.0 L 652.0 385.0 L 650.0 384.0 L 620.0 385.0 L 617.0 389.0 Z M 305.0 359.0 L 305.0 371.0 L 309.0 375.0 L 306.0 359.0 Z M 358.0 355.0 L 353.0 360.0 L 349.0 369.0 L 347.0 377.0 L 346.0 399.0 L 347.0 399.0 L 347.0 392.0 L 349.0 390.0 L 351.0 381.0 L 349.0 379.0 L 349.0 371.0 L 352.0 367.0 L 356.0 368.0 L 357.0 364.0 L 356.0 359.0 L 358.0 357.0 Z M 675.0 352.0 L 674.0 352.0 L 674.0 358.0 L 670.0 373.0 L 670.0 377.0 L 673.0 376.0 L 672.0 369.0 L 673.0 365.0 L 675.0 364.0 Z M 314.0 348.0 L 315.0 356.0 L 316.0 356.0 L 316.0 351.0 L 315.0 348.0 Z M 372.0 342.0 L 364.0 350.0 L 367.0 348.0 L 371.0 348.0 Z M 638.0 338.0 L 638.0 340.0 L 645.0 343.0 L 646.0 351.0 L 649.0 356.0 L 650.0 366.0 L 651.0 366.0 L 651.0 359.0 L 648.0 346.0 L 642.0 339.0 Z M 312.0 321.0 L 312.0 334.0 L 313.0 334.0 L 313.0 321.0 Z M 621.0 316.0 L 621.0 325.0 L 619.0 327.0 L 620.0 330.0 L 625.0 335.0 L 632.0 337.0 L 632.0 335.0 L 627.0 330.0 L 622.0 316.0 Z M 624.0 305.0 L 626.0 307.0 L 627.0 313.0 L 635.0 330.0 L 641.0 331.0 L 639.0 327.0 L 635.0 326.0 L 632.0 316.0 L 630.0 315.0 L 628.0 306.0 Z M 614.0 303.0 L 615.0 308.0 L 619.0 311.0 L 617.0 306.0 Z M 300.0 303.0 L 301.0 314.0 L 302.0 314.0 L 302.0 303.0 Z M 558.0 287.0 L 558.0 288.0 L 564.0 288.0 L 565.0 293.0 L 570.0 293.0 L 571.0 296.0 L 573.0 297.0 L 573.0 295.0 L 570.0 293.0 L 570.0 291.0 L 563.0 284.0 L 560.0 287.0 Z M 591.0 286.0 L 591.0 287.0 L 595.0 288.0 L 600.0 286.0 L 605.0 292.0 L 605.0 294.0 L 608.0 295.0 L 607.0 299.0 L 602.0 297.0 L 602.0 301.0 L 605.0 305.0 L 607.0 305.0 L 608.0 301.0 L 613.0 301.0 L 609.0 294.0 L 598.0 283.0 L 597.0 283.0 L 596.0 287.0 Z M 645.0 282.0 L 643.0 282.0 L 642.0 288.0 L 644.0 288.0 Z M 617.0 275.0 L 618.0 282.0 L 620.0 283.0 L 621.0 281.0 L 620.0 275.0 Z M 381.0 275.0 L 380.0 275.0 L 377.0 283.0 L 378.0 329.0 L 373.0 340.0 L 376.0 339.0 L 377.0 334.0 L 379.0 333.0 L 380.0 330.0 L 379.0 292.0 L 380.0 289.0 L 383.0 288.0 L 384.0 284.0 L 381.0 281.0 Z M 597.0 273.0 L 613.0 289.0 L 622.0 303.0 L 623.0 303.0 L 622.0 297.0 L 620.0 296.0 L 618.0 289.0 L 615.0 287.0 L 615.0 283.0 L 611.0 282.0 L 602.0 275.0 L 600.0 275.0 L 599.0 273.0 Z M 582.0 273.0 L 580.0 273.0 L 580.0 276.0 L 583.0 286.0 L 583.0 297.0 L 582.0 300.0 L 578.0 302.0 L 579.0 304.0 L 583.0 303.0 L 584.0 300.0 L 589.0 301.0 L 588.0 292.0 L 587.0 290.0 L 584.0 289.0 L 583.0 278.0 L 586.0 277.0 L 593.0 280.0 L 590.0 277.0 Z M 541.0 268.0 L 541.0 270.0 L 544.0 270.0 L 546.0 272.0 L 545.0 275.0 L 546.0 280.0 L 548.0 280.0 L 549.0 277.0 L 554.0 277.0 L 556.0 279.0 L 556.0 284.0 L 558.0 282.0 L 560.0 282.0 L 552.0 274.0 Z M 617.0 263.0 L 617.0 265.0 L 621.0 268.0 L 622.0 273.0 L 625.0 274.0 L 627.0 277.0 L 625.0 282.0 L 630.0 283.0 L 634.0 286.0 L 633.0 281.0 L 629.0 274.0 L 622.0 266.0 Z M 378.0 263.0 L 376.0 263.0 L 376.0 266.0 L 374.0 267.0 L 374.0 269.0 L 369.0 277.0 L 369.0 280.0 L 365.0 281.0 L 365.0 284.0 L 368.0 285.0 L 368.0 288.0 L 365.0 289.0 L 365.0 296.0 L 368.0 297.0 L 368.0 302.0 L 365.0 303.0 L 365.0 304.0 L 369.0 305.0 L 369.0 314.0 L 370.0 315.0 L 368.0 328.0 L 365.0 329.0 L 365.0 338.0 L 360.0 341.0 L 354.0 348.0 L 350.0 349.0 L 345.0 356.0 L 342.0 356.0 L 342.0 361.0 L 339.0 364.0 L 340.0 370.0 L 337.0 372.0 L 337.0 380.0 L 339.0 388.0 L 335.0 389.0 L 335.0 394.0 L 334.0 395.0 L 329.0 395.0 L 328.0 394.0 L 327.0 389.0 L 329.0 387.0 L 322.0 389.0 L 322.0 394.0 L 330.0 399.0 L 339.0 399.0 L 339.0 394.0 L 337.0 393.0 L 337.0 391.0 L 339.0 390.0 L 340.0 377.0 L 344.0 363.0 L 352.0 350.0 L 355.0 347.0 L 357.0 347.0 L 368.0 336.0 L 370.0 332.0 L 372.0 323.0 L 371.0 308.0 L 370.0 307.0 L 370.0 283.0 L 374.0 272.0 L 379.0 265.0 Z M 551.0 264.0 L 552.0 267.0 L 561.0 273.0 L 575.0 287.0 L 576.0 287.0 L 575.0 280.0 L 569.0 266.0 L 571.0 264.0 L 576.0 264.0 L 592.0 270.0 L 590.0 268.0 L 589.0 264.0 L 582.0 264.0 L 579.0 260.0 L 577.0 260.0 L 576.0 262.0 L 567.0 263.0 L 565.0 270.0 L 558.0 267.0 L 555.0 267.0 Z M 305.0 253.0 L 303.0 253.0 L 300.0 256.0 L 297.0 256.0 L 298.0 268.0 L 299.0 268.0 L 299.0 265.0 Z M 360.0 252.0 L 361.0 256.0 L 363.0 256.0 L 365.0 258.0 L 365.0 261.0 L 367.0 263.0 L 374.0 262.0 L 368.0 257.0 L 364.0 256.0 Z M 531.0 262.0 L 529.0 262.0 L 515.0 255.0 L 495.0 249.0 L 484.0 248.0 L 483.0 247.0 L 459.0 247.0 L 440.0 252.0 L 417.0 264.0 L 407.0 266.0 L 386.0 266.0 L 385.0 268.0 L 392.0 271.0 L 393.0 273.0 L 404.0 273.0 L 409.0 270.0 L 409.0 268.0 L 411.0 266.0 L 422.0 265.0 L 423.0 262.0 L 428.0 262.0 L 432.0 259.0 L 438.0 258.0 L 441.0 253.0 L 454.0 250.0 L 476.0 250.0 L 477.0 253.0 L 473.0 254.0 L 473.0 255.0 L 482.0 255.0 L 483.0 256.0 L 485.0 256.0 L 485.0 255.0 L 480.0 254.0 L 479.0 253.0 L 480.0 250.0 L 499.0 251.0 L 500.0 254.0 L 497.0 255.0 L 499.0 259.0 L 501.0 257.0 L 510.0 259.0 L 513.0 262.0 L 513.0 264.0 L 516.0 264.0 L 517.0 260.0 L 531.0 263.0 Z M 318.0 237.0 L 317.0 237.0 L 315.0 242.0 L 312.0 242.0 L 312.0 243.0 L 316.0 243.0 L 318.0 245.0 L 316.0 250.0 L 319.0 249.0 L 320.0 245.0 Z M 301.0 236.0 L 297.0 237.0 L 297.0 244.0 L 298.0 244.0 Z M 447.0 235.0 L 443.0 236.0 L 442.0 241.0 L 438.0 242.0 L 431.0 249.0 L 427.0 249.0 L 416.0 256.0 L 410.0 256.0 L 407.0 258.0 L 401.0 258.0 L 400.0 257.0 L 391.0 258.0 L 387.0 256.0 L 383.0 256.0 L 379.0 251.0 L 376.0 251.0 L 374.0 248.0 L 369.0 248.0 L 365.0 245.0 L 364.0 246.0 L 371.0 252.0 L 383.0 258.0 L 387.0 259.0 L 408.0 259.0 L 419.0 256.0 L 438.0 246.0 L 444.0 240.0 Z M 618.0 228.0 L 617.0 233.0 L 615.0 236.0 L 617.0 238.0 L 619.0 238.0 L 623.0 242.0 L 623.0 244.0 L 625.0 244.0 L 628.0 247.0 L 630.0 252.0 L 629.0 256.0 L 632.0 257.0 L 632.0 260.0 L 627.0 261.0 L 627.0 262.0 L 632.0 267.0 L 639.0 279.0 L 641.0 280.0 L 640.0 270.0 L 644.0 266.0 L 647.0 259.0 L 645.0 256.0 L 645.0 252.0 L 642.0 251.0 L 638.0 247.0 L 634.0 238.0 L 629.0 234.0 L 629.0 228.0 L 627.0 230.0 L 625.0 230.0 L 624.0 228.0 Z M 620.0 229.0 L 624.0 230.0 L 629.0 234.0 L 636.0 244.0 L 642.0 258.0 L 642.0 261.0 L 640.0 263.0 L 637.0 263.0 L 635.0 261.0 L 633.0 253.0 L 628.0 244.0 L 618.0 234.0 L 618.0 231.0 Z M 670.0 225.0 L 676.0 242.0 L 679.0 257.0 L 679.0 263.0 L 680.0 263.0 L 679.0 252.0 L 676.0 243.0 L 676.0 239.0 L 674.0 236.0 L 674.0 229.0 Z M 468.0 214.0 L 463.0 213.0 L 461.0 218.0 L 455.0 223.0 L 453.0 227.0 L 451.0 227.0 L 449.0 229.0 L 449.0 233.0 Z M 322.0 210.0 L 321.0 210.0 L 320.0 216.0 L 325.0 214.0 Z M 329.0 205.0 L 328.0 207.0 L 333.0 213.0 L 333.0 216.0 L 335.0 217.0 L 333.0 212.0 L 333.0 208.0 L 335.0 206.0 Z M 545.0 262.0 L 541.0 258.0 L 533.0 255.0 L 532.0 252.0 L 517.0 248.0 L 516.0 244.0 L 511.0 244.0 L 510.0 241.0 L 508.0 243.0 L 502.0 243.0 L 501.0 242.0 L 496.0 242.0 L 495.0 240.0 L 491.0 240.0 L 490.0 236.0 L 481.0 236.0 L 480.0 237.0 L 469.0 236.0 L 466.0 237.0 L 463.0 235.0 L 463.0 231.0 L 465.0 229.0 L 470.0 228.0 L 471.0 224.0 L 473.0 223.0 L 475.0 219.0 L 480.0 219.0 L 481.0 216.0 L 486.0 215.0 L 487.0 213.0 L 492.0 213.0 L 495.0 210.0 L 498.0 209.0 L 503.0 209.0 L 504.0 207.0 L 511.0 208.0 L 512.0 206.0 L 517.0 206.0 L 519.0 208.0 L 519.0 204.0 L 522.0 201.0 L 505.0 204.0 L 493.0 208.0 L 483.0 213.0 L 482.0 215.0 L 476.0 217.0 L 474.0 220.0 L 469.0 222.0 L 452.0 240.0 L 452.0 241.0 L 480.0 240.0 L 481.0 237.0 L 484.0 237.0 L 485.0 241.0 L 495.0 242.0 L 515.0 248.0 L 528.0 254.0 L 531.0 254.0 L 532.0 256.0 L 534.0 256.0 Z M 646.0 193.0 L 649.0 197.0 L 653.0 199.0 L 653.0 196.0 L 655.0 194.0 Z M 520.0 194.0 L 516.0 193.0 L 506.0 196.0 L 499.0 196.0 L 497.0 198.0 L 492.0 198.0 L 489.0 201.0 L 475.0 206.0 L 473.0 211.0 L 476.0 208.0 L 480.0 208.0 L 482.0 206.0 L 495.0 200.0 L 505.0 197.0 L 520.0 195.0 Z M 633.0 192.0 L 633.0 195.0 L 640.0 202.0 L 644.0 203.0 L 651.0 210.0 L 651.0 214.0 L 657.0 218.0 L 657.0 220.0 L 660.0 223.0 L 660.0 228.0 L 665.0 235.0 L 665.0 238.0 L 667.0 240.0 L 669.0 248.0 L 668.0 251.0 L 664.0 251.0 L 659.0 257.0 L 661.0 266.0 L 663.0 267.0 L 661.0 272.0 L 663.0 272.0 L 665.0 274.0 L 666.0 284.0 L 668.0 287.0 L 668.0 320.0 L 669.0 321.0 L 669.0 328.0 L 668.0 329.0 L 668.0 342.0 L 666.0 343.0 L 666.0 348.0 L 665.0 349.0 L 666.0 355.0 L 665.0 356.0 L 663.0 356.0 L 661.0 354.0 L 660.0 350.0 L 657.0 348.0 L 655.0 340.0 L 651.0 335.0 L 648.0 334.0 L 653.0 341.0 L 656.0 349.0 L 658.0 359.0 L 658.0 366.0 L 659.0 367.0 L 659.0 377.0 L 660.0 381.0 L 661.0 381.0 L 663.0 372.0 L 661.0 371.0 L 661.0 367.0 L 663.0 365.0 L 665.0 365.0 L 667.0 357.0 L 669.0 337.0 L 670.0 336.0 L 670.0 324.0 L 671.0 323.0 L 670.0 294.0 L 669.0 293.0 L 669.0 287.0 L 666.0 271.0 L 662.0 260.0 L 662.0 255.0 L 667.0 254.0 L 669.0 256.0 L 671.0 256.0 L 671.0 251.0 L 667.0 236.0 L 657.0 215.0 L 651.0 209.0 L 648.0 204.0 L 642.0 199.0 L 637.0 197.0 Z M 334.0 187.0 L 333.0 187.0 L 331.0 193.0 L 326.0 193.0 L 326.0 194.0 L 333.0 194.0 Z M 346.0 186.0 L 345.0 186.0 L 345.0 191.0 L 343.0 195.0 L 342.0 205.0 L 344.0 205.0 L 344.0 199.0 L 345.0 196.0 L 348.0 193.0 L 351.0 193.0 L 353.0 195.0 L 352.0 191.0 L 349.0 191.0 Z M 640.0 169.0 L 645.0 174.0 L 644.0 170.0 Z M 350.0 169.0 L 350.0 176.0 L 352.0 176.0 L 355.0 171.0 Z M 617.0 163.0 L 617.0 166.0 L 623.0 167.0 L 625.0 170.0 L 628.0 170.0 L 630.0 172.0 L 630.0 176.0 L 634.0 176.0 L 641.0 183.0 L 641.0 185.0 L 636.0 187.0 L 635.0 189.0 L 641.0 187.0 L 646.0 187.0 L 643.0 182.0 L 631.0 170.0 L 628.0 170.0 L 627.0 168.0 L 623.0 167.0 L 619.0 163.0 Z M 439.0 165.0 L 436.0 162.0 L 429.0 161.0 L 427.0 164.0 L 419.0 166.0 L 418.0 168.0 L 413.0 168.0 L 412.0 171.0 L 410.0 171.0 L 406.0 175.0 L 403.0 175.0 L 401.0 180.0 L 397.0 181.0 L 392.0 187.0 L 390.0 187.0 L 384.0 195.0 L 381.0 195.0 L 381.0 198.0 L 378.0 201.0 L 376.0 208.0 L 385.0 196.0 L 399.0 181.0 L 401.0 181.0 L 402.0 179.0 L 404.0 179.0 L 415.0 171.0 L 432.0 163.0 L 435.0 163.0 L 437.0 165.0 L 437.0 168.0 L 435.0 170.0 L 428.0 172.0 L 418.0 177.0 L 401.0 189.0 L 387.0 204.0 L 379.0 217.0 L 375.0 228.0 L 372.0 231.0 L 370.0 231.0 L 368.0 229.0 L 368.0 225.0 L 375.0 211.0 L 374.0 210.0 L 368.0 219.0 L 365.0 219.0 L 365.0 225.0 L 364.0 226.0 L 365.0 231.0 L 368.0 233.0 L 375.0 233.0 L 377.0 231.0 L 378.0 223.0 L 381.0 216.0 L 385.0 212.0 L 387.0 212.0 L 387.0 209.0 L 390.0 207.0 L 390.0 204.0 L 392.0 202.0 L 397.0 204.0 L 397.0 203.0 L 394.0 202.0 L 394.0 199.0 L 399.0 196.0 L 399.0 194.0 L 402.0 191.0 L 405.0 191.0 L 405.0 189.0 L 408.0 186.0 L 415.0 182.0 L 420.0 182.0 L 421.0 177.0 L 426.0 175.0 L 433.0 176.0 L 434.0 172.0 L 439.0 170.0 Z M 363.0 161.0 L 360.0 161.0 L 358.0 167.0 Z M 396.0 153.0 L 392.0 153.0 L 385.0 160.0 L 390.0 159.0 Z M 601.0 146.0 L 599.0 141.0 L 593.0 143.0 L 593.0 144.0 Z M 570.0 134.0 L 570.0 142.0 L 568.0 145.0 L 568.0 147.0 L 570.0 149.0 L 570.0 152.0 L 582.0 152.0 L 583.0 156.0 L 588.0 158.0 L 589.0 155.0 L 587.0 154.0 L 587.0 152.0 L 589.0 150.0 L 572.0 149.0 L 570.0 147.0 L 570.0 144.0 L 572.0 142.0 L 582.0 138.0 L 580.0 136.0 Z M 511.0 131.0 L 508.0 131.0 L 505.0 133.0 L 499.0 133.0 L 499.0 134.0 L 510.0 134.0 Z M 523.0 129.0 L 523.0 130.0 L 536.0 130.0 L 536.0 129.0 Z M 496.0 127.0 L 489.0 130.0 L 485.0 130.0 L 485.0 131.0 L 488.0 133.0 L 490.0 130.0 L 494.0 130.0 Z M 564.0 122.0 L 564.0 123.0 L 570.0 125.0 L 572.0 122.0 L 569.0 123.0 Z M 422.0 122.0 L 420.0 123.0 L 411.0 123.0 L 411.0 127.0 L 422.0 123.0 Z M 487.0 119.0 L 481.0 121.0 L 476.0 121.0 L 476.0 122.0 L 481.0 122.0 L 482.0 125.0 L 484.0 126.0 Z M 533.0 116.0 L 533.0 117.0 L 547.0 119.0 L 546.0 115.0 L 544.0 115.0 L 543.0 117.0 L 537.0 117.0 L 536.0 115.0 Z M 503.0 115.0 L 499.0 117.0 L 498.0 120.0 L 504.0 119.0 Z M 453.0 113.0 L 445.0 114.0 L 439.0 117.0 L 435.0 117.0 L 433.0 119.0 L 453.0 114.0 Z M 466.0 111.0 L 476.0 110.0 L 477.0 109.0 L 488.0 109.0 L 488.0 108.0 L 469.0 108.0 Z" fill="#c0d6f2" fill-rule="evenodd" clip-rule="evenodd"/>
<path d="M 908.0 1008.0 L 908.0 1014.0 L 910.0 1015.0 L 911.0 1023.0 L 913.0 1023.0 L 911.0 1015.0 L 909.0 1014.0 L 910.0 1009.0 Z M 895.0 933.0 L 895.0 948.0 L 896.0 952.0 L 897.0 952.0 L 896.0 950.0 L 897.0 941.0 L 896.0 940.0 L 896.0 933.0 Z M 98.0 888.0 L 97.0 888.0 L 94.0 901.0 L 95.0 908.0 L 96.0 908.0 L 95.0 903.0 L 97.0 902.0 L 96.0 897.0 L 99.0 896.0 Z M 871.0 853.0 L 873.0 855.0 L 873.0 858.0 L 876.0 862.0 L 876.0 866.0 L 877.0 866.0 L 875.0 856.0 L 873.0 855.0 L 873.0 853.0 Z M 862.0 832.0 L 864.0 834.0 L 864.0 840.0 L 865.0 843.0 L 866.0 843.0 L 865.0 834.0 L 864.0 832.0 Z M 116.0 829.0 L 115.0 829.0 L 112.0 836.0 L 112.0 840.0 L 114.0 840.0 L 114.0 833.0 Z M 573.0 828.0 L 570.0 828.0 L 569.0 830.0 L 570.0 835.0 L 567.0 839.0 L 561.0 838.0 L 563.0 844.0 L 566.0 844.0 L 573.0 834.0 Z M 542.0 800.0 L 541.0 805.0 L 543.0 806.0 L 545.0 811.0 L 548.0 813.0 L 548.0 816.0 L 550.0 820.0 L 553.0 819.0 L 549.0 816.0 L 549.0 810.0 L 546.0 807.0 L 546.0 805.0 L 542.0 804.0 L 543.0 801.0 Z M 838.0 793.0 L 840.0 801.0 L 844.0 800.0 L 844.0 798.0 Z M 827.0 784.0 L 826.0 788.0 L 829.0 789.0 L 830.0 791.0 L 832.0 791.0 L 833.0 795.0 L 834.0 795.0 L 834.0 792.0 L 836.0 790.0 L 832.0 787.0 L 829.0 787.0 L 828.0 784.0 Z M 781.0 763.0 L 783.0 765.0 L 786.0 765.0 L 787.0 767.0 L 796.0 768.0 L 798.0 773.0 L 807.0 773.0 L 807.0 772.0 L 801.0 770.0 L 800.0 768.0 L 796.0 768.0 L 793.0 765.0 Z M 187.0 761.0 L 186.0 766.0 L 191.0 765.0 L 191.0 763.0 L 189.0 763.0 Z M 206.0 756.0 L 203.0 754.0 L 199.0 755.0 L 195.0 758.0 L 193.0 758.0 L 195.0 761.0 L 196.0 758.0 L 201.0 759.0 L 202.0 756.0 L 204.0 756.0 L 205.0 758.0 L 206.0 758.0 Z M 731.0 745.0 L 731.0 746.0 L 736.0 747.0 L 737.0 750.0 L 740.0 752.0 L 745.0 752.0 L 749.0 754.0 L 751.0 752.0 L 755.0 753.0 L 753.0 751.0 L 747.0 749.0 L 741.0 749.0 L 740.0 747.0 Z M 474.0 745.0 L 476.0 747.0 L 477.0 751.0 L 479.0 751.0 L 478.0 745.0 L 477.0 744.0 Z M 694.0 736.0 L 698.0 737.0 L 700.0 736.0 L 705.0 737.0 L 705.0 735.0 L 696.0 733.0 Z M 657.0 722.0 L 657.0 724.0 L 662.0 725.0 L 663.0 727.0 L 666.0 728.0 L 675.0 728.0 L 677.0 727.0 L 675.0 725.0 L 662.0 721.0 Z M 544.0 714.0 L 538.0 716.0 L 538.0 718.0 L 536.0 720.0 L 540.0 719.0 Z M 289.0 714.0 L 287.0 716.0 L 282.0 717.0 L 282.0 719.0 L 279.0 722.0 L 287.0 722.0 Z M 524.0 706.0 L 524.0 707.0 L 529.0 708.0 L 530.0 710.0 L 537.0 709.0 L 537.0 708.0 L 531.0 706.0 L 528.0 707.0 Z M 326.0 702.0 L 324.0 699.0 L 321.0 699.0 L 320.0 701.0 L 317.0 701.0 L 313.0 703.0 L 313.0 705.0 L 323.0 706.0 Z M 436.0 697.0 L 440.0 701.0 L 440.0 698.0 Z M 625.0 684.0 L 625.0 687.0 L 628.0 688.0 L 628.0 695.0 L 631.0 698.0 L 629.0 688.0 L 627.0 684.0 Z M 349.0 676.0 L 348.0 676.0 L 345.0 684.0 L 346.0 696.0 L 348.0 695.0 L 349.0 681.0 L 351.0 679.0 Z M 592.0 660.0 L 593.0 666.0 L 597.0 667.0 L 597.0 672.0 L 598.0 672.0 L 598.0 659.0 Z M 501.0 655.0 L 525.0 655.0 L 526.0 654.0 L 533.0 654.0 L 533.0 653.0 L 521.0 653.0 L 520.0 654.0 L 509.0 653.0 L 508.0 654.0 L 501.0 654.0 Z M 606.0 648.0 L 606.0 656.0 L 611.0 656.0 L 614.0 658.0 L 609.0 649.0 Z M 363.0 645.0 L 359.0 645.0 L 356.0 657.0 L 359.0 654.0 L 360.0 648.0 L 364.0 647.0 Z M 600.0 641.0 L 598.0 642.0 L 597.0 649.0 L 595.0 650.0 L 594.0 655.0 L 599.0 654.0 Z M 442.0 629.0 L 442.0 631.0 L 447.0 634.0 L 447.0 630.0 Z M 367.0 629.0 L 365.0 629.0 L 364.0 638.0 L 362.0 640.0 L 367.0 639.0 L 367.0 632.0 L 368.0 631.0 Z M 433.0 623.0 L 436.0 627.0 L 437.0 627.0 L 438.0 624.0 L 440.0 624.0 L 440.0 623.0 Z M 387.0 616.0 L 387.0 630.0 L 390.0 631.0 L 391.0 625.0 L 389.0 624.0 L 389.0 618.0 Z M 605.0 602.0 L 601.0 601.0 L 601.0 603.0 L 599.0 605.0 L 599.0 610.0 L 605.0 604.0 Z M 401.0 598.0 L 405.0 603.0 L 410.0 606.0 L 409.0 601.0 L 405.0 601.0 L 403.0 598.0 Z M 535.0 579.0 L 532.0 582.0 L 521.0 581.0 L 518.0 583.0 L 502.0 583.0 L 502.0 584.0 L 532.0 584.0 L 535.0 583.0 Z M 374.0 570.0 L 376.0 575.0 L 383.0 582.0 L 382.0 572.0 L 379.0 570.0 Z M 633.0 569.0 L 631.0 569.0 L 629.0 575.0 L 631.0 574.0 Z M 500.0 570.0 L 500.0 572.0 L 515.0 571.0 L 518.0 572.0 L 519.0 574.0 L 532.0 572.0 L 532.0 570.0 L 528.0 569.0 L 508.0 570.0 L 506.0 568.0 L 507.0 562.0 L 505.0 562.0 L 505.0 568.0 Z M 464.0 555.0 L 467.0 559.0 L 472.0 560.0 L 473.0 558.0 L 475.0 558.0 L 476.0 561.0 L 478.0 561.0 L 477.0 558.0 Z M 639.0 551.0 L 638.0 551.0 L 638.0 559.0 L 635.0 563.0 L 633.0 563.0 L 634.0 567.0 L 636.0 566.0 L 638.0 562.0 Z M 449.0 553.0 L 449.0 554.0 L 459.0 554.0 L 457.0 552.0 L 453.0 552.0 L 452.0 550.0 Z M 468.0 547.0 L 468.0 548.0 L 472.0 548.0 L 480.0 551.0 L 481.0 548.0 L 487.0 548.0 L 487.0 547.0 L 482.0 547.0 L 481.0 548.0 Z M 545.0 547.0 L 546.0 549.0 L 552.0 548.0 L 551.0 546.0 L 546.0 546.0 Z M 599.0 531.0 L 596.0 532.0 L 597.0 537.0 L 599.0 537.0 Z M 582.0 530.0 L 582.0 534.0 L 584.0 534.0 L 587.0 537.0 L 587.0 535.0 L 584.0 534.0 L 583.0 530.0 Z M 406.0 530.0 L 410.0 545.0 L 413.0 552.0 L 414.0 552.0 L 414.0 547.0 L 412.0 545.0 L 411.0 538.0 L 409.0 537.0 L 409.0 532.0 Z M 364.0 515.0 L 364.0 521.0 L 361.0 522.0 L 365.0 544.0 L 366.0 544.0 L 368.0 538.0 L 366.0 535.0 L 365.0 530.0 L 366.0 525.0 L 364.0 524.0 L 365.0 515.0 Z M 646.0 512.0 L 645.0 512.0 L 645.0 515.0 L 642.0 516.0 L 643.0 518.0 L 642.0 534.0 L 644.0 534.0 Z M 319.0 497.0 L 318.0 497.0 L 318.0 502.0 L 315.0 503.0 L 315.0 505.0 L 318.0 506.0 L 318.0 508.0 L 315.0 509.0 L 317.0 516.0 L 319.0 514.0 L 318.0 512.0 Z M 528.0 499.0 L 533.0 497.0 L 534.0 495.0 L 533.0 494.0 L 528.0 494.0 Z M 471.0 491.0 L 470.0 496.0 L 471.0 497.0 L 471.0 504.0 L 474.0 503.0 L 474.0 499.0 L 472.0 495.0 L 472.0 491.0 Z M 398.0 491.0 L 400.0 493.0 L 404.0 492.0 L 405.0 496.0 L 406.0 496.0 L 406.0 491.0 Z M 560.0 485.0 L 558.0 485.0 L 556.0 487.0 L 557.0 491.0 L 560.0 488.0 Z M 354.0 484.0 L 355.0 494.0 L 357.0 493.0 L 357.0 484.0 Z M 675.0 483.0 L 675.0 490.0 L 679.0 491.0 L 680.0 494.0 L 679.0 499.0 L 680.0 499.0 L 681.0 484.0 Z M 659.0 482.0 L 659.0 504.0 L 660.0 504.0 L 660.0 482.0 Z M 561.0 481.0 L 561.0 483.0 L 563.0 483.0 L 565.0 486.0 L 570.0 486.0 L 570.0 485.0 L 566.0 484.0 L 566.0 480.0 Z M 482.0 478.0 L 483.0 490.0 L 480.0 491.0 L 480.0 495.0 L 482.0 499.0 L 486.0 499.0 L 486.0 496.0 L 490.0 495.0 L 490.0 494.0 L 488.0 493.0 L 488.0 490.0 L 486.0 489.0 L 487.0 479.0 Z M 337.0 479.0 L 339.0 481.0 L 339.0 484.0 L 342.0 484.0 L 342.0 479.0 L 341.0 478.0 Z M 419.0 469.0 L 432.0 469.0 L 433.0 465.0 L 439.0 465.0 L 439.0 464.0 L 427.0 464.0 L 426.0 468.0 L 422.0 468.0 L 421.0 464.0 L 419.0 464.0 Z M 324.0 462.0 L 323.0 471.0 L 326.0 472.0 L 325.0 462.0 Z M 626.0 461.0 L 620.0 462.0 L 617.0 465.0 L 623.0 464.0 Z M 365.0 460.0 L 365.0 466.0 L 361.0 467.0 L 361.0 468.0 L 364.0 468.0 L 365.0 471.0 L 369.0 470.0 L 370.0 475.0 L 378.0 478.0 L 380.0 484.0 L 382.0 485.0 L 379.0 480.0 L 379.0 477.0 L 374.0 473.0 L 368.0 465.0 L 366.0 460.0 Z M 473.0 459.0 L 463.0 468.0 L 470.0 466.0 Z M 579.0 456.0 L 579.0 457.0 L 582.0 457.0 L 583.0 460.0 L 586.0 460.0 L 587.0 457.0 L 591.0 457.0 L 591.0 456.0 Z M 620.0 453.0 L 612.0 456.0 L 596.0 456.0 L 596.0 457.0 L 601.0 459.0 L 606.0 459.0 L 620.0 455.0 Z M 466.0 453.0 L 463.0 453.0 L 459.0 457.0 L 457.0 457.0 L 455.0 462.0 L 458.0 462.0 L 464.0 458.0 Z M 329.0 451.0 L 329.0 453.0 L 327.0 455.0 L 329.0 455.0 L 330.0 458.0 L 331.0 458.0 L 332.0 453.0 Z M 660.0 450.0 L 659.0 469.0 L 666.0 472.0 L 669.0 470.0 L 676.0 469.0 L 677.0 461.0 L 675.0 461.0 L 673.0 464.0 L 669.0 466.0 L 668.0 469.0 L 666.0 469.0 L 662.0 465.0 L 662.0 462.0 L 667.0 459.0 L 669.0 456.0 L 668.0 453.0 L 665.0 452.0 L 665.0 450.0 Z M 389.0 449.0 L 387.0 451.0 L 388.0 455.0 L 393.0 460.0 L 394.0 457.0 L 389.0 454.0 L 390.0 450.0 Z M 556.0 447.0 L 559.0 452.0 L 563.0 454.0 L 566.0 454.0 L 565.0 451.0 L 559.0 450.0 Z M 519.0 441.0 L 519.0 443.0 L 522.0 444.0 L 521.0 448.0 L 525.0 451.0 L 523.0 439.0 Z M 323.0 435.0 L 320.0 438.0 L 320.0 445.0 L 318.0 447.0 L 316.0 447.0 L 315.0 449.0 L 312.0 449.0 L 311.0 451.0 L 311.0 456.0 L 310.0 457.0 L 311.0 461.0 L 308.0 462.0 L 306.0 457.0 L 302.0 456.0 L 302.0 459.0 L 305.0 463.0 L 311.0 481.0 L 313.0 479.0 L 318.0 479.0 L 314.0 468.0 L 313.0 460.0 L 316.0 450.0 L 323.0 445.0 L 327.0 444.0 L 327.0 440.0 Z M 669.0 433.0 L 669.0 435.0 L 672.0 436.0 L 673.0 440.0 L 674.0 440.0 L 673.0 434.0 Z M 480.0 430.0 L 480.0 444.0 L 481.0 444.0 L 481.0 430.0 Z M 639.0 426.0 L 638.0 426.0 L 637.0 436.0 L 638.0 436.0 L 639.0 432.0 Z M 471.0 425.0 L 471.0 437.0 L 473.0 439.0 L 473.0 426.0 Z M 335.0 425.0 L 334.0 428.0 L 330.0 432.0 L 334.0 436.0 L 334.0 438.0 L 337.0 435.0 L 340.0 436.0 L 339.0 439.0 L 340.0 444.0 L 338.0 445.0 L 339.0 453.0 L 341.0 455.0 L 342.0 454.0 L 342.0 446.0 L 345.0 442.0 L 348.0 442.0 L 352.0 436.0 L 351.0 429.0 L 348.0 430.0 L 348.0 436.0 L 346.0 438.0 L 343.0 438.0 L 340.0 434.0 L 338.0 425.0 Z M 578.0 420.0 L 578.0 424.0 L 582.0 423.0 L 583.0 425.0 L 592.0 425.0 L 591.0 422.0 L 583.0 423.0 Z M 294.0 418.0 L 293.0 420.0 L 291.0 420.0 L 291.0 427.0 L 294.0 430.0 L 293.0 434.0 L 294.0 441.0 L 296.0 441.0 L 296.0 429.0 L 297.0 428.0 L 303.0 429.0 L 306.0 426.0 L 312.0 427.0 L 312.0 426.0 L 307.0 423.0 L 301.0 423.0 L 299.0 420.0 Z M 421.0 417.0 L 422.0 423.0 L 424.0 425.0 L 423.0 417.0 Z M 674.0 416.0 L 675.0 422.0 L 672.0 425.0 L 679.0 430.0 L 682.0 438.0 L 682.0 443.0 L 687.0 441.0 L 688.0 444.0 L 689.0 444.0 L 692.0 438.0 L 694.0 429.0 L 692.0 429.0 L 690.0 433.0 L 685.0 433.0 L 684.0 430.0 L 682.0 429.0 L 682.0 425.0 L 678.0 425.0 L 676.0 423.0 L 676.0 417.0 L 678.0 415.0 Z M 359.0 415.0 L 358.0 415.0 L 358.0 422.0 L 356.0 431.0 L 357.0 440.0 L 359.0 439.0 L 360.0 434.0 Z M 305.0 412.0 L 304.0 416.0 L 308.0 416.0 L 316.0 419.0 L 314.0 416.0 L 311.0 415.0 L 311.0 412.0 Z M 327.0 407.0 L 326.0 409.0 L 327.0 412.0 L 331.0 413.0 L 330.0 409.0 Z M 663.0 401.0 L 661.0 403.0 L 661.0 407.0 L 664.0 410.0 L 669.0 410.0 L 672.0 406.0 L 669.0 405.0 L 668.0 402.0 Z M 299.0 401.0 L 299.0 402.0 L 303.0 403.0 L 305.0 399.0 L 309.0 399.0 L 310.0 402.0 L 317.0 403.0 L 318.0 406.0 L 321.0 406.0 L 321.0 404.0 L 323.0 403.0 L 323.0 402.0 L 314.0 398.0 L 303.0 398.0 Z M 386.0 387.0 L 382.0 386.0 L 381.0 384.0 L 373.0 386.0 L 372.0 388.0 L 368.0 387.0 L 367.0 385.0 L 360.0 387.0 L 356.0 386.0 L 358.0 393.0 L 358.0 398.0 L 359.0 398.0 L 359.0 393.0 L 363.0 389.0 L 386.0 388.0 Z M 682.0 386.0 L 682.0 387.0 L 689.0 387.0 L 690.0 391.0 L 692.0 390.0 L 692.0 387.0 L 687.0 383.0 L 685.0 383.0 L 685.0 385.0 Z M 472.0 380.0 L 473.0 383.0 L 483.0 383.0 L 491.0 381.0 L 491.0 380.0 Z M 445.0 379.0 L 446.0 382.0 L 457.0 382.0 L 459.0 383.0 L 459.0 382.0 Z M 408.0 379.0 L 401.0 381.0 L 400.0 383.0 L 397.0 383.0 L 393.0 385.0 L 392.0 387.0 L 398.0 387.0 L 399.0 384.0 L 404.0 383.0 Z M 416.0 377.0 L 417.0 380.0 L 430.0 380.0 L 431.0 379.0 L 429.0 377.0 Z M 532.0 380.0 L 540.0 380.0 L 545.0 379.0 L 545.0 378.0 L 542.0 378.0 L 539.0 375.0 L 537.0 375.0 Z M 643.0 371.0 L 642.0 372.0 L 632.0 373.0 L 630.0 375.0 L 645.0 374.0 Z M 606.0 371.0 L 606.0 372.0 L 612.0 373.0 L 613.0 375.0 L 616.0 373.0 L 616.0 372.0 L 613.0 371.0 Z M 602.0 372.0 L 596.0 371.0 L 595.0 369.0 L 586.0 369.0 L 566.0 374.0 L 566.0 375.0 L 568.0 375.0 L 569.0 377.0 L 572.0 378.0 L 591.0 377.0 L 592.0 373.0 L 602.0 373.0 Z M 456.0 365.0 L 456.0 366.0 L 461.0 368.0 L 466.0 366.0 L 466.0 365.0 Z M 411.0 364.0 L 408.0 364.0 L 404.0 366.0 L 398.0 365.0 L 398.0 366.0 L 405.0 367.0 L 411.0 365.0 Z M 646.0 362.0 L 646.0 368.0 L 648.0 368.0 L 648.0 364.0 Z M 557.0 361.0 L 565.0 359.0 L 565.0 358.0 L 558.0 357.0 Z M 596.0 354.0 L 596.0 355.0 L 611.0 357.0 L 611.0 356.0 L 607.0 356.0 L 602.0 354.0 Z M 311.0 347.0 L 313.0 362.0 L 314.0 362.0 L 312.0 347.0 Z M 311.0 303.0 L 309.0 305.0 L 309.0 329.0 L 310.0 329.0 Z M 308.0 267.0 L 305.0 271.0 L 304.0 277.0 L 307.0 275.0 Z M 317.0 252.0 L 313.0 253.0 L 311.0 257.0 L 311.0 260.0 L 317.0 254.0 Z M 309.0 238.0 L 308.0 238.0 L 306.0 244.0 L 310.0 242.0 Z M 369.0 170.0 L 366.0 169.0 L 363.0 172.0 L 358.0 181.0 L 361.0 181.0 L 361.0 179.0 L 367.0 175.0 Z M 391.0 147.0 L 385.0 150.0 L 380.0 156.0 L 382.0 154.0 L 387.0 154.0 L 390.0 151.0 Z M 416.0 133.0 L 409.0 136.0 L 409.0 137.0 L 412.0 138.0 L 413.0 136.0 L 416.0 136.0 Z M 543.0 126.0 L 543.0 127.0 L 548.0 127.0 L 552.0 129.0 L 561.0 130.0 L 559.0 128.0 Z M 506.0 126.0 L 501.0 126.0 L 497.0 128.0 L 497.0 130.0 L 503.0 130.0 L 506.0 128.0 Z M 441.0 124.0 L 429.0 127.0 L 428.0 129.0 L 430.0 128.0 L 434.0 129.0 L 435.0 127.0 L 441.0 125.0 Z M 463.0 120.0 L 460.0 119.0 L 455.0 121.0 L 451.0 121.0 L 451.0 122.0 L 455.0 123.0 L 459.0 121.0 L 463.0 121.0 Z" fill="#ffffff" fill-rule="evenodd" clip-rule="evenodd"/>
<path d="M 589.0 986.0 L 585.0 988.0 L 582.0 991.0 L 580.0 996.0 L 580.0 1002.0 L 582.0 1007.0 L 586.0 1011.0 L 588.0 1011.0 L 589.0 1012.0 L 594.0 1012.0 L 594.0 1009.0 L 592.0 1007.0 L 590.0 1007.0 L 585.0 1001.0 L 585.0 997.0 L 586.0 995.0 L 590.0 991.0 L 593.0 991.0 L 594.0 990.0 L 594.0 987.0 L 593.0 986.0 Z M 270.0 910.0 L 270.0 915.0 L 271.0 916.0 L 271.0 919.0 L 272.0 920.0 L 272.0 923.0 L 273.0 924.0 L 273.0 927.0 L 275.0 932.0 L 275.0 936.0 L 276.0 937.0 L 276.0 941.0 L 277.0 942.0 L 277.0 947.0 L 278.0 948.0 L 278.0 953.0 L 279.0 954.0 L 280.0 967.0 L 281.0 968.0 L 281.0 976.0 L 282.0 977.0 L 283.0 993.0 L 284.0 994.0 L 284.0 1004.0 L 285.0 1005.0 L 285.0 1016.0 L 286.0 1017.0 L 286.0 1023.0 L 291.0 1023.0 L 291.0 1020.0 L 290.0 1019.0 L 290.0 1008.0 L 289.0 1007.0 L 289.0 997.0 L 288.0 996.0 L 288.0 988.0 L 287.0 987.0 L 287.0 979.0 L 286.0 978.0 L 286.0 970.0 L 285.0 969.0 L 285.0 962.0 L 284.0 961.0 L 284.0 954.0 L 283.0 953.0 L 282.0 942.0 L 281.0 941.0 L 280.0 932.0 L 279.0 931.0 L 279.0 928.0 L 278.0 927.0 L 275.0 912.0 L 274.0 910.0 Z M 788.0 891.0 L 789.0 912.0 L 790.0 913.0 L 790.0 925.0 L 791.0 926.0 L 791.0 939.0 L 792.0 940.0 L 792.0 956.0 L 793.0 957.0 L 793.0 980.0 L 794.0 981.0 L 794.0 1023.0 L 799.0 1023.0 L 799.0 996.0 L 798.0 995.0 L 798.0 966.0 L 797.0 965.0 L 796.0 928.0 L 795.0 927.0 L 795.0 916.0 L 794.0 915.0 L 793.0 892.0 Z M 575.0 871.0 L 574.0 872.0 L 572.0 872.0 L 567.0 877.0 L 567.0 879.0 L 566.0 880.0 L 566.0 889.0 L 572.0 896.0 L 574.0 896.0 L 575.0 897.0 L 580.0 897.0 L 580.0 896.0 L 582.0 895.0 L 582.0 893.0 L 581.0 892.0 L 576.0 892.0 L 574.0 891.0 L 571.0 888.0 L 571.0 886.0 L 570.0 885.0 L 572.0 879.0 L 575.0 876.0 L 578.0 876.0 L 579.0 874.0 L 579.0 872.0 Z M 507.0 799.0 L 507.0 803.0 L 512.0 805.0 L 517.0 810.0 L 517.0 814.0 L 513.0 817.0 L 511.0 817.0 L 507.0 815.0 L 503.0 811.0 L 499.0 811.0 L 499.0 814.0 L 503.0 819.0 L 507.0 821.0 L 510.0 821.0 L 511.0 822.0 L 517.0 821.0 L 521.0 817.0 L 521.0 815.0 L 522.0 814.0 L 521.0 807.0 L 519.0 804.0 L 512.0 799.0 Z M 551.0 703.0 L 548.0 702.0 L 539.0 709.0 L 534.0 711.0 L 523.0 711.0 L 522.0 710.0 L 519.0 710.0 L 518.0 709.0 L 510.0 707.0 L 510.0 712.0 L 515.0 713.0 L 519.0 715.0 L 525.0 715.0 L 526.0 716.0 L 536.0 715.0 L 547.0 710.0 L 548.0 708.0 L 551.0 706.0 Z M 542.0 573.0 L 541.0 571.0 L 538.0 570.0 L 533.0 573.0 L 524.0 574.0 L 523.0 575.0 L 512.0 575.0 L 511.0 574.0 L 504.0 574.0 L 503.0 573.0 L 501.0 573.0 L 498.0 575.0 L 498.0 576.0 L 501.0 578.0 L 505.0 578.0 L 506.0 579.0 L 510.0 579.0 L 511.0 578.0 L 514.0 578.0 L 515.0 579.0 L 527.0 579.0 L 528.0 578.0 L 532.0 578.0 L 533.0 577.0 L 541.0 575.0 Z M 578.0 536.0 L 574.0 536.0 L 566.0 542.0 L 551.0 549.0 L 549.0 549.0 L 545.0 551.0 L 542.0 551.0 L 541.0 552.0 L 532.0 553.0 L 531.0 555.0 L 529.0 554.0 L 524.0 554.0 L 523.0 556.0 L 521.0 556.0 L 520.0 555.0 L 500.0 555.0 L 498.0 556.0 L 497.0 554.0 L 490.0 555.0 L 488.0 553.0 L 484.0 553.0 L 483.0 552.0 L 479.0 552.0 L 478.0 551.0 L 471.0 550.0 L 470.0 549.0 L 464.0 548.0 L 454.0 544.0 L 450.0 545.0 L 450.0 547.0 L 455.0 550.0 L 457.0 550.0 L 464.0 553.0 L 467.0 553.0 L 468.0 554.0 L 475.0 555.0 L 476.0 556.0 L 480.0 556.0 L 481.0 557.0 L 485.0 557.0 L 486.0 558.0 L 493.0 558.0 L 494.0 559.0 L 528.0 559.0 L 529.0 558.0 L 535.0 558.0 L 536.0 557.0 L 544.0 556.0 L 545.0 555.0 L 556.0 552.0 L 558.0 550.0 L 561.0 550.0 L 572.0 544.0 L 574.0 541.0 L 576.0 541.0 L 578.0 539.0 Z M 402.0 534.0 L 401.0 536.0 L 403.0 544.0 L 405.0 547.0 L 406.0 551.0 L 411.0 551.0 L 409.0 547.0 L 408.0 542.0 L 406.0 539.0 L 405.0 533.0 Z M 442.0 530.0 L 439.0 531.0 L 435.0 536.0 L 433.0 540.0 L 432.0 549.0 L 435.0 549.0 L 437.0 545.0 L 437.0 542.0 L 442.0 535.0 Z M 584.0 521.0 L 583.0 522.0 L 584.0 526.0 L 588.0 530.0 L 590.0 534.0 L 590.0 538.0 L 591.0 538.0 L 592.0 540.0 L 594.0 540.0 L 595.0 535.0 L 592.0 527.0 L 588.0 522.0 Z M 623.0 519.0 L 620.0 519.0 L 619.0 521.0 L 618.0 530.0 L 615.0 537.0 L 615.0 540.0 L 619.0 540.0 L 620.0 538.0 L 620.0 536.0 L 622.0 532.0 L 622.0 529.0 L 623.0 528.0 L 622.0 525.0 L 624.0 524.0 Z M 473.0 491.0 L 474.0 498.0 L 476.0 502.0 L 480.0 505.0 L 499.0 504.0 L 500.0 505.0 L 502.0 505.0 L 506.0 508.0 L 508.0 508.0 L 512.0 510.0 L 524.0 510.0 L 530.0 507.0 L 536.0 501.0 L 541.0 501.0 L 542.0 502.0 L 549.0 502.0 L 550.0 501.0 L 550.0 498.0 L 545.0 498.0 L 540.0 496.0 L 535.0 496.0 L 533.0 497.0 L 532.0 499.0 L 530.0 499.0 L 525.0 504.0 L 520.0 505.0 L 519.0 506.0 L 511.0 505.0 L 500.0 499.0 L 490.0 499.0 L 486.0 501.0 L 483.0 501.0 L 478.0 495.0 L 478.0 490.0 L 479.0 489.0 L 479.0 487.0 L 482.0 483.0 L 480.0 480.0 L 477.0 481.0 L 474.0 486.0 L 474.0 490.0 Z M 300.0 417.0 L 300.0 421.0 L 306.0 421.0 L 313.0 425.0 L 315.0 425.0 L 317.0 428.0 L 319.0 428.0 L 320.0 429.0 L 320.0 430.0 L 327.0 438.0 L 329.0 442.0 L 329.0 444.0 L 328.0 445.0 L 324.0 445.0 L 322.0 446.0 L 322.0 447.0 L 321.0 448.0 L 319.0 448.0 L 319.0 450.0 L 316.0 452.0 L 316.0 454.0 L 315.0 455.0 L 316.0 457.0 L 316.0 461.0 L 314.0 462.0 L 315.0 464.0 L 315.0 468.0 L 318.0 475.0 L 320.0 476.0 L 320.0 478.0 L 323.0 481.0 L 330.0 485.0 L 337.0 486.0 L 335.0 481.0 L 333.0 481.0 L 329.0 479.0 L 326.0 476.0 L 324.0 476.0 L 323.0 475.0 L 323.0 473.0 L 321.0 471.0 L 321.0 469.0 L 319.0 465.0 L 319.0 459.0 L 321.0 454.0 L 325.0 450.0 L 329.0 449.0 L 333.0 452.0 L 333.0 454.0 L 334.0 455.0 L 334.0 465.0 L 336.0 468.0 L 338.0 467.0 L 337.0 465.0 L 338.0 453.0 L 337.0 452.0 L 337.0 449.0 L 336.0 448.0 L 335.0 443.0 L 332.0 437.0 L 328.0 431.0 L 326.0 430.0 L 323.0 426.0 L 317.0 421.0 L 308.0 417.0 Z M 430.0 409.0 L 426.0 412.0 L 424.0 416.0 L 424.0 422.0 L 425.0 424.0 L 426.0 424.0 L 428.0 427.0 L 430.0 428.0 L 438.0 428.0 L 438.0 427.0 L 439.0 426.0 L 441.0 426.0 L 441.0 424.0 L 443.0 423.0 L 443.0 420.0 L 442.0 419.0 L 443.0 415.0 L 442.0 413.0 L 439.0 411.0 L 439.0 410.0 L 437.0 410.0 L 436.0 409.0 Z M 582.0 402.0 L 580.0 404.0 L 578.0 404.0 L 576.0 407.0 L 576.0 415.0 L 580.0 420.0 L 582.0 421.0 L 588.0 421.0 L 593.0 418.0 L 595.0 414.0 L 595.0 409.0 L 594.0 408.0 L 594.0 406.0 L 592.0 404.0 L 590.0 404.0 L 588.0 402.0 Z M 477.0 399.0 L 476.0 398.0 L 460.0 398.0 L 459.0 399.0 L 443.0 399.0 L 442.0 400.0 L 424.0 400.0 L 423.0 401.0 L 406.0 401.0 L 405.0 402.0 L 386.0 402.0 L 385.0 403.0 L 376.0 403.0 L 375.0 404.0 L 375.0 427.0 L 376.0 428.0 L 376.0 442.0 L 377.0 443.0 L 378.0 450.0 L 382.0 458.0 L 387.0 464.0 L 394.0 469.0 L 402.0 472.0 L 411.0 473.0 L 412.0 474.0 L 437.0 474.0 L 438.0 473.0 L 444.0 473.0 L 445.0 471.0 L 447.0 472.0 L 452.0 471.0 L 455.0 469.0 L 459.0 468.0 L 460.0 466.0 L 464.0 465.0 L 466.0 462.0 L 472.0 457.0 L 476.0 450.0 L 476.0 448.0 L 478.0 444.0 L 478.0 422.0 L 477.0 421.0 L 478.0 419.0 L 478.0 404.0 L 477.0 403.0 Z M 473.0 404.0 L 474.0 439.0 L 473.0 440.0 L 473.0 443.0 L 472.0 444.0 L 471.0 449.0 L 468.0 453.0 L 468.0 455.0 L 466.0 456.0 L 463.0 460.0 L 461.0 460.0 L 459.0 462.0 L 451.0 466.0 L 441.0 468.0 L 440.0 469.0 L 433.0 469.0 L 432.0 470.0 L 418.0 470.0 L 417.0 469.0 L 406.0 468.0 L 405.0 467.0 L 400.0 466.0 L 397.0 464.0 L 395.0 464.0 L 394.0 462.0 L 392.0 462.0 L 386.0 455.0 L 382.0 447.0 L 382.0 443.0 L 381.0 442.0 L 381.0 432.0 L 380.0 431.0 L 380.0 412.0 L 379.0 411.0 L 379.0 409.0 L 381.0 407.0 L 421.0 406.0 L 422.0 405.0 L 456.0 404.0 L 457.0 403.0 L 472.0 403.0 Z M 643.0 390.0 L 640.0 389.0 L 639.0 390.0 L 616.0 390.0 L 615.0 391.0 L 598.0 391.0 L 597.0 392.0 L 576.0 392.0 L 575.0 393.0 L 560.0 393.0 L 559.0 394.0 L 543.0 394.0 L 543.0 395.0 L 541.0 396.0 L 541.0 405.0 L 542.0 406.0 L 542.0 426.0 L 543.0 427.0 L 543.0 436.0 L 544.0 437.0 L 544.0 440.0 L 548.0 449.0 L 554.0 456.0 L 560.0 460.0 L 564.0 461.0 L 567.0 463.0 L 576.0 464.0 L 577.0 465.0 L 592.0 465.0 L 593.0 464.0 L 600.0 464.0 L 601.0 465.0 L 604.0 465.0 L 605.0 464.0 L 614.0 463.0 L 627.0 458.0 L 627.0 457.0 L 628.0 456.0 L 630.0 456.0 L 632.0 453.0 L 634.0 453.0 L 635.0 452.0 L 635.0 450.0 L 639.0 447.0 L 642.0 441.0 L 643.0 435.0 L 644.0 434.0 L 644.0 403.0 L 643.0 402.0 Z M 639.0 395.0 L 639.0 412.0 L 640.0 413.0 L 640.0 431.0 L 639.0 432.0 L 639.0 436.0 L 636.0 442.0 L 634.0 444.0 L 634.0 446.0 L 632.0 447.0 L 628.0 452.0 L 626.0 452.0 L 624.0 455.0 L 620.0 455.0 L 617.0 457.0 L 615.0 457.0 L 611.0 459.0 L 607.0 459.0 L 605.0 461.0 L 603.0 460.0 L 598.0 460.0 L 597.0 461.0 L 582.0 461.0 L 581.0 460.0 L 578.0 460.0 L 577.0 461.0 L 575.0 461.0 L 574.0 459.0 L 571.0 459.0 L 570.0 458.0 L 565.0 457.0 L 560.0 454.0 L 551.0 444.0 L 548.0 437.0 L 548.0 432.0 L 547.0 431.0 L 547.0 412.0 L 546.0 411.0 L 546.0 400.0 L 547.0 399.0 L 549.0 399.0 L 550.0 398.0 L 568.0 398.0 L 569.0 397.0 L 607.0 396.0 L 608.0 395.0 L 629.0 395.0 L 630.0 394.0 L 638.0 394.0 Z M 386.0 382.0 L 390.0 385.0 L 392.0 383.0 L 406.0 377.0 L 409.0 377.0 L 414.0 375.0 L 432.0 375.0 L 433.0 374.0 L 436.0 376.0 L 441.0 376.0 L 442.0 377.0 L 451.0 378.0 L 456.0 380.0 L 465.0 381.0 L 466.0 380.0 L 468.0 380.0 L 468.0 374.0 L 466.0 371.0 L 451.0 365.0 L 436.0 364.0 L 435.0 363.0 L 423.0 363.0 L 422.0 364.0 L 416.0 364.0 L 415.0 365.0 L 408.0 366.0 L 398.0 370.0 L 391.0 375.0 L 387.0 379.0 Z M 619.0 258.0 L 618.0 259.0 L 618.0 262.0 L 626.0 269.0 L 631.0 276.0 L 636.0 287.0 L 637.0 288.0 L 639.0 288.0 L 641.0 285.0 L 633.0 270.0 L 623.0 259.0 Z M 619.0 230.0 L 618.0 231.0 L 618.0 233.0 L 627.0 242.0 L 634.0 254.0 L 636.0 261.0 L 637.0 262.0 L 639.0 262.0 L 640.0 261.0 L 640.0 256.0 L 634.0 243.0 L 629.0 236.0 L 624.0 231.0 Z M 435.0 166.0 L 432.0 164.0 L 428.0 165.0 L 419.0 170.0 L 417.0 170.0 L 399.0 182.0 L 385.0 196.0 L 379.0 204.0 L 371.0 218.0 L 368.0 228.0 L 369.0 229.0 L 372.0 229.0 L 373.0 228.0 L 374.0 224.0 L 382.0 209.0 L 391.0 197.0 L 399.0 189.0 L 415.0 177.0 L 429.0 170.0 L 431.0 170.0 L 435.0 168.0 Z M 597.0 136.0 L 593.0 134.0 L 591.0 134.0 L 586.0 131.0 L 581.0 130.0 L 576.0 127.0 L 574.0 127.0 L 564.0 123.0 L 561.0 123.0 L 560.0 122.0 L 557.0 122.0 L 552.0 120.0 L 548.0 120.0 L 547.0 119.0 L 542.0 119.0 L 541.0 118.0 L 508.0 118.0 L 507.0 119.0 L 498.0 120.0 L 497.0 118.0 L 503.0 112.0 L 503.0 109.0 L 502.0 108.0 L 496.0 108.0 L 495.0 109.0 L 483.0 109.0 L 482.0 110.0 L 473.0 110.0 L 472.0 111.0 L 466.0 111.0 L 465.0 112.0 L 456.0 113.0 L 455.0 114.0 L 452.0 114.0 L 451.0 115.0 L 448.0 115.0 L 447.0 116.0 L 444.0 116.0 L 443.0 117.0 L 440.0 117.0 L 439.0 118.0 L 436.0 118.0 L 435.0 119.0 L 432.0 119.0 L 431.0 120.0 L 426.0 121.0 L 423.0 123.0 L 416.0 125.0 L 394.0 136.0 L 372.0 152.0 L 363.0 161.0 L 351.0 178.0 L 349.0 177.0 L 349.0 164.0 L 348.0 163.0 L 346.0 163.0 L 340.0 171.0 L 337.0 177.0 L 337.0 179.0 L 335.0 183.0 L 335.0 187.0 L 334.0 188.0 L 334.0 194.0 L 333.0 195.0 L 319.0 195.0 L 318.0 196.0 L 313.0 196.0 L 306.0 199.0 L 306.0 203.0 L 314.0 204.0 L 321.0 208.0 L 325.0 212.0 L 325.0 214.0 L 324.0 215.0 L 317.0 218.0 L 313.0 221.0 L 304.0 231.0 L 299.0 240.0 L 299.0 242.0 L 297.0 245.0 L 296.0 251.0 L 295.0 252.0 L 297.0 255.0 L 300.0 254.0 L 303.0 251.0 L 305.0 252.0 L 305.0 254.0 L 301.0 261.0 L 301.0 263.0 L 298.0 270.0 L 297.0 277.0 L 296.0 278.0 L 296.0 284.0 L 295.0 285.0 L 295.0 303.0 L 298.0 303.0 L 298.0 302.0 L 301.0 300.0 L 303.0 301.0 L 303.0 306.0 L 302.0 307.0 L 302.0 328.0 L 303.0 329.0 L 303.0 341.0 L 304.0 342.0 L 304.0 349.0 L 305.0 350.0 L 305.0 355.0 L 306.0 356.0 L 307.0 365.0 L 309.0 370.0 L 309.0 374.0 L 310.0 375.0 L 311.0 382.0 L 314.0 390.0 L 313.0 391.0 L 303.0 391.0 L 302.0 392.0 L 300.0 392.0 L 295.0 395.0 L 290.0 400.0 L 286.0 408.0 L 286.0 412.0 L 285.0 413.0 L 285.0 433.0 L 286.0 434.0 L 286.0 437.0 L 287.0 438.0 L 289.0 446.0 L 298.0 464.0 L 298.0 466.0 L 301.0 471.0 L 301.0 473.0 L 303.0 476.0 L 303.0 478.0 L 307.0 488.0 L 307.0 492.0 L 308.0 493.0 L 308.0 508.0 L 309.0 509.0 L 309.0 513.0 L 312.0 520.0 L 317.0 526.0 L 329.0 532.0 L 340.0 532.0 L 348.0 528.0 L 352.0 523.0 L 355.0 525.0 L 355.0 529.0 L 356.0 530.0 L 356.0 534.0 L 357.0 535.0 L 358.0 543.0 L 360.0 548.0 L 361.0 557.0 L 362.0 558.0 L 364.0 566.0 L 369.0 576.0 L 379.0 588.0 L 379.0 594.0 L 370.0 601.0 L 364.0 610.0 L 364.0 612.0 L 361.0 618.0 L 360.0 624.0 L 358.0 627.0 L 353.0 644.0 L 348.0 655.0 L 348.0 658.0 L 343.0 669.0 L 340.0 680.0 L 337.0 685.0 L 333.0 686.0 L 311.0 697.0 L 309.0 697.0 L 304.0 700.0 L 302.0 700.0 L 293.0 705.0 L 291.0 705.0 L 276.0 713.0 L 274.0 713.0 L 267.0 717.0 L 265.0 717.0 L 226.0 736.0 L 224.0 736.0 L 217.0 740.0 L 215.0 740.0 L 208.0 744.0 L 206.0 744.0 L 191.0 752.0 L 189.0 752.0 L 182.0 756.0 L 180.0 756.0 L 175.0 759.0 L 173.0 759.0 L 159.0 766.0 L 141.0 779.0 L 133.0 787.0 L 133.0 788.0 L 122.0 801.0 L 119.0 807.0 L 117.0 809.0 L 106.0 832.0 L 105.0 837.0 L 103.0 840.0 L 103.0 842.0 L 101.0 846.0 L 101.0 849.0 L 98.0 856.0 L 98.0 859.0 L 96.0 863.0 L 96.0 866.0 L 94.0 870.0 L 94.0 873.0 L 93.0 874.0 L 93.0 877.0 L 91.0 882.0 L 91.0 886.0 L 89.0 891.0 L 89.0 895.0 L 87.0 900.0 L 86.0 910.0 L 85.0 911.0 L 85.0 915.0 L 84.0 916.0 L 84.0 920.0 L 83.0 921.0 L 83.0 926.0 L 82.0 927.0 L 82.0 932.0 L 81.0 933.0 L 81.0 938.0 L 80.0 939.0 L 80.0 944.0 L 79.0 945.0 L 79.0 951.0 L 78.0 952.0 L 78.0 957.0 L 77.0 958.0 L 77.0 963.0 L 76.0 964.0 L 76.0 971.0 L 75.0 972.0 L 75.0 978.0 L 74.0 979.0 L 74.0 985.0 L 73.0 986.0 L 73.0 993.0 L 72.0 994.0 L 72.0 1000.0 L 71.0 1001.0 L 71.0 1009.0 L 70.0 1010.0 L 69.0 1023.0 L 73.0 1023.0 L 74.0 1022.0 L 75.0 1008.0 L 76.0 1007.0 L 76.0 1000.0 L 77.0 999.0 L 77.0 992.0 L 78.0 991.0 L 79.0 977.0 L 80.0 976.0 L 80.0 970.0 L 81.0 969.0 L 81.0 963.0 L 82.0 962.0 L 82.0 956.0 L 83.0 955.0 L 83.0 949.0 L 84.0 948.0 L 86.0 931.0 L 87.0 930.0 L 87.0 926.0 L 88.0 925.0 L 88.0 920.0 L 89.0 919.0 L 89.0 915.0 L 90.0 914.0 L 90.0 910.0 L 91.0 909.0 L 93.0 895.0 L 94.0 894.0 L 94.0 891.0 L 95.0 890.0 L 95.0 887.0 L 96.0 886.0 L 97.0 878.0 L 99.0 874.0 L 101.0 863.0 L 103.0 859.0 L 103.0 856.0 L 104.0 855.0 L 107.0 844.0 L 109.0 841.0 L 111.0 833.0 L 113.0 830.0 L 113.0 828.0 L 120.0 815.0 L 121.0 811.0 L 123.0 810.0 L 127.0 803.0 L 130.0 800.0 L 130.0 798.0 L 132.0 797.0 L 133.0 795.0 L 148.0 780.0 L 159.0 772.0 L 162.0 771.0 L 163.0 769.0 L 165.0 769.0 L 171.0 765.0 L 173.0 765.0 L 181.0 761.0 L 183.0 761.0 L 205.0 750.0 L 207.0 750.0 L 214.0 746.0 L 216.0 746.0 L 231.0 738.0 L 233.0 738.0 L 239.0 735.0 L 241.0 733.0 L 244.0 733.0 L 281.0 715.0 L 283.0 715.0 L 292.0 710.0 L 294.0 710.0 L 301.0 706.0 L 303.0 706.0 L 314.0 700.0 L 316.0 700.0 L 323.0 696.0 L 325.0 696.0 L 329.0 694.0 L 330.0 692.0 L 334.0 692.0 L 335.0 691.0 L 338.0 691.0 L 339.0 692.0 L 341.0 703.0 L 342.0 704.0 L 346.0 718.0 L 348.0 721.0 L 358.0 753.0 L 360.0 756.0 L 360.0 759.0 L 361.0 760.0 L 363.0 768.0 L 365.0 771.0 L 367.0 779.0 L 369.0 782.0 L 372.0 793.0 L 374.0 796.0 L 379.0 813.0 L 381.0 816.0 L 382.0 821.0 L 384.0 824.0 L 384.0 826.0 L 390.0 842.0 L 392.0 843.0 L 396.0 842.0 L 416.0 832.0 L 439.0 816.0 L 471.0 790.0 L 480.0 785.0 L 482.0 785.0 L 486.0 783.0 L 495.0 782.0 L 507.0 791.0 L 519.0 797.0 L 521.0 797.0 L 532.0 804.0 L 538.0 811.0 L 549.0 832.0 L 551.0 834.0 L 554.0 841.0 L 556.0 843.0 L 558.0 848.0 L 561.0 852.0 L 557.0 860.0 L 556.0 865.0 L 554.0 868.0 L 554.0 871.0 L 552.0 876.0 L 552.0 880.0 L 551.0 881.0 L 551.0 889.0 L 550.0 890.0 L 550.0 909.0 L 551.0 910.0 L 551.0 921.0 L 552.0 922.0 L 553.0 939.0 L 554.0 940.0 L 554.0 947.0 L 555.0 948.0 L 555.0 955.0 L 556.0 956.0 L 556.0 963.0 L 557.0 964.0 L 557.0 972.0 L 558.0 973.0 L 558.0 981.0 L 559.0 982.0 L 559.0 990.0 L 560.0 991.0 L 560.0 999.0 L 561.0 1000.0 L 561.0 1010.0 L 562.0 1011.0 L 562.0 1021.0 L 563.0 1023.0 L 567.0 1023.0 L 567.0 1014.0 L 566.0 1013.0 L 565.0 993.0 L 564.0 992.0 L 564.0 984.0 L 563.0 983.0 L 563.0 976.0 L 562.0 975.0 L 562.0 966.0 L 561.0 965.0 L 561.0 958.0 L 560.0 957.0 L 560.0 950.0 L 559.0 949.0 L 559.0 942.0 L 558.0 941.0 L 558.0 933.0 L 557.0 932.0 L 557.0 923.0 L 556.0 922.0 L 556.0 912.0 L 555.0 911.0 L 555.0 891.0 L 556.0 890.0 L 556.0 881.0 L 561.0 869.0 L 567.0 862.0 L 576.0 856.0 L 607.0 842.0 L 613.0 838.0 L 624.0 827.0 L 628.0 821.0 L 634.0 807.0 L 634.0 804.0 L 636.0 799.0 L 636.0 794.0 L 637.0 793.0 L 637.0 781.0 L 638.0 780.0 L 642.0 782.0 L 667.0 808.0 L 675.0 814.0 L 687.0 820.0 L 689.0 820.0 L 696.0 823.0 L 699.0 823.0 L 704.0 825.0 L 708.0 823.0 L 708.0 821.0 L 702.0 813.0 L 701.0 810.0 L 692.0 798.0 L 686.0 787.0 L 683.0 784.0 L 653.0 738.0 L 644.0 720.0 L 644.0 718.0 L 642.0 715.0 L 643.0 713.0 L 654.0 716.0 L 657.0 718.0 L 677.0 724.0 L 680.0 726.0 L 682.0 726.0 L 695.0 731.0 L 698.0 731.0 L 699.0 732.0 L 707.0 734.0 L 710.0 736.0 L 712.0 736.0 L 719.0 739.0 L 725.0 740.0 L 728.0 742.0 L 731.0 742.0 L 732.0 743.0 L 761.0 752.0 L 767.0 755.0 L 773.0 756.0 L 776.0 758.0 L 778.0 758.0 L 779.0 759.0 L 787.0 761.0 L 790.0 763.0 L 792.0 763.0 L 795.0 765.0 L 797.0 765.0 L 807.0 770.0 L 809.0 772.0 L 816.0 775.0 L 818.0 777.0 L 823.0 779.0 L 838.0 790.0 L 844.0 796.0 L 850.0 805.0 L 852.0 806.0 L 852.0 808.0 L 855.0 814.0 L 857.0 816.0 L 869.0 840.0 L 869.0 842.0 L 874.0 851.0 L 874.0 853.0 L 877.0 858.0 L 878.0 863.0 L 880.0 866.0 L 881.0 871.0 L 883.0 874.0 L 883.0 877.0 L 886.0 884.0 L 888.0 895.0 L 890.0 899.0 L 890.0 903.0 L 892.0 908.0 L 894.0 922.0 L 896.0 927.0 L 896.0 931.0 L 897.0 932.0 L 897.0 936.0 L 898.0 937.0 L 898.0 942.0 L 899.0 943.0 L 899.0 947.0 L 900.0 948.0 L 900.0 953.0 L 901.0 954.0 L 901.0 958.0 L 902.0 959.0 L 902.0 964.0 L 903.0 965.0 L 903.0 970.0 L 904.0 971.0 L 904.0 975.0 L 905.0 976.0 L 905.0 980.0 L 906.0 981.0 L 906.0 985.0 L 907.0 986.0 L 907.0 991.0 L 908.0 992.0 L 909.0 1002.0 L 911.0 1007.0 L 911.0 1012.0 L 913.0 1017.0 L 913.0 1021.0 L 914.0 1023.0 L 918.0 1023.0 L 918.0 1019.0 L 917.0 1018.0 L 917.0 1014.0 L 916.0 1013.0 L 916.0 1009.0 L 915.0 1008.0 L 915.0 1003.0 L 914.0 1002.0 L 914.0 998.0 L 913.0 997.0 L 913.0 993.0 L 912.0 992.0 L 912.0 988.0 L 911.0 987.0 L 911.0 982.0 L 910.0 981.0 L 910.0 977.0 L 909.0 976.0 L 909.0 971.0 L 908.0 970.0 L 908.0 966.0 L 907.0 965.0 L 907.0 961.0 L 906.0 960.0 L 906.0 955.0 L 905.0 954.0 L 905.0 950.0 L 904.0 949.0 L 904.0 944.0 L 903.0 943.0 L 903.0 939.0 L 902.0 938.0 L 902.0 934.0 L 901.0 933.0 L 901.0 929.0 L 900.0 928.0 L 900.0 924.0 L 899.0 923.0 L 899.0 918.0 L 897.0 913.0 L 896.0 904.0 L 895.0 903.0 L 895.0 900.0 L 894.0 899.0 L 891.0 884.0 L 889.0 880.0 L 889.0 877.0 L 888.0 876.0 L 884.0 862.0 L 879.0 852.0 L 879.0 850.0 L 875.0 843.0 L 875.0 841.0 L 859.0 809.0 L 857.0 807.0 L 856.0 804.0 L 850.0 795.0 L 839.0 784.0 L 831.0 778.0 L 816.0 770.0 L 814.0 768.0 L 804.0 763.0 L 802.0 763.0 L 795.0 759.0 L 785.0 756.0 L 782.0 754.0 L 779.0 754.0 L 776.0 752.0 L 774.0 752.0 L 770.0 750.0 L 764.0 749.0 L 761.0 747.0 L 759.0 747.0 L 746.0 742.0 L 743.0 742.0 L 740.0 740.0 L 737.0 740.0 L 734.0 738.0 L 732.0 738.0 L 725.0 735.0 L 722.0 735.0 L 721.0 734.0 L 701.0 728.0 L 698.0 726.0 L 696.0 726.0 L 680.0 720.0 L 677.0 720.0 L 674.0 718.0 L 668.0 717.0 L 660.0 713.0 L 655.0 712.0 L 652.0 710.0 L 650.0 710.0 L 640.0 706.0 L 638.0 702.0 L 636.0 691.0 L 635.0 690.0 L 632.0 679.0 L 628.0 671.0 L 628.0 669.0 L 618.0 651.0 L 606.0 637.0 L 606.0 631.0 L 607.0 630.0 L 607.0 623.0 L 608.0 622.0 L 609.0 608.0 L 633.0 581.0 L 635.0 577.0 L 638.0 574.0 L 645.0 561.0 L 645.0 559.0 L 647.0 555.0 L 647.0 552.0 L 648.0 551.0 L 648.0 545.0 L 649.0 544.0 L 649.0 535.0 L 650.0 534.0 L 651.0 516.0 L 653.0 514.0 L 655.0 514.0 L 656.0 515.0 L 661.0 515.0 L 662.0 516.0 L 669.0 515.0 L 677.0 511.0 L 682.0 506.0 L 685.0 501.0 L 685.0 499.0 L 687.0 495.0 L 687.0 482.0 L 686.0 481.0 L 687.0 467.0 L 702.0 426.0 L 702.0 423.0 L 703.0 422.0 L 703.0 415.0 L 704.0 414.0 L 704.0 404.0 L 703.0 403.0 L 703.0 398.0 L 702.0 397.0 L 701.0 391.0 L 698.0 385.0 L 691.0 378.0 L 684.0 375.0 L 676.0 375.0 L 671.0 377.0 L 669.0 377.0 L 668.0 376.0 L 669.0 370.0 L 670.0 369.0 L 670.0 365.0 L 671.0 364.0 L 671.0 360.0 L 672.0 359.0 L 672.0 353.0 L 673.0 352.0 L 674.0 339.0 L 675.0 338.0 L 675.0 327.0 L 676.0 326.0 L 676.0 301.0 L 675.0 300.0 L 675.0 289.0 L 674.0 288.0 L 673.0 277.0 L 672.0 276.0 L 672.0 272.0 L 671.0 271.0 L 670.0 265.0 L 671.0 264.0 L 677.0 265.0 L 677.0 254.0 L 676.0 253.0 L 676.0 248.0 L 675.0 247.0 L 675.0 244.0 L 674.0 243.0 L 674.0 240.0 L 673.0 239.0 L 671.0 231.0 L 663.0 214.0 L 654.0 202.0 L 645.0 194.0 L 646.0 192.0 L 652.0 192.0 L 654.0 193.0 L 655.0 192.0 L 655.0 188.0 L 650.0 181.0 L 643.0 174.0 L 643.0 173.0 L 629.0 161.0 L 620.0 155.0 L 606.0 148.0 L 592.0 144.0 L 591.0 143.0 L 592.0 141.0 L 595.0 141.0 L 598.0 139.0 Z M 607.0 646.0 L 611.0 650.0 L 616.0 659.0 L 619.0 661.0 L 619.0 664.0 L 626.0 677.0 L 626.0 679.0 L 628.0 682.0 L 629.0 688.0 L 632.0 695.0 L 632.0 698.0 L 633.0 699.0 L 633.0 702.0 L 637.0 713.0 L 637.0 716.0 L 647.0 738.0 L 669.0 771.0 L 670.0 774.0 L 696.0 812.0 L 697.0 816.0 L 696.0 817.0 L 693.0 817.0 L 680.0 811.0 L 673.0 806.0 L 648.0 780.0 L 638.0 774.0 L 633.0 774.0 L 632.0 776.0 L 633.0 778.0 L 633.0 785.0 L 632.0 786.0 L 632.0 794.0 L 631.0 795.0 L 630.0 803.0 L 629.0 804.0 L 628.0 809.0 L 626.0 812.0 L 626.0 814.0 L 617.0 827.0 L 612.0 832.0 L 602.0 839.0 L 594.0 843.0 L 592.0 843.0 L 587.0 846.0 L 580.0 848.0 L 567.0 855.0 L 566.0 853.0 L 571.0 847.0 L 583.0 829.0 L 592.0 812.0 L 592.0 810.0 L 594.0 807.0 L 594.0 805.0 L 598.0 795.0 L 598.0 792.0 L 600.0 788.0 L 601.0 780.0 L 602.0 779.0 L 603.0 767.0 L 604.0 766.0 L 604.0 757.0 L 605.0 756.0 L 605.0 743.0 L 606.0 742.0 L 606.0 717.0 L 605.0 716.0 L 604.0 690.0 L 603.0 689.0 L 603.0 660.0 L 604.0 659.0 L 604.0 647.0 L 605.0 646.0 Z M 378.0 601.0 L 380.0 602.0 L 380.0 630.0 L 384.0 638.0 L 402.0 662.0 L 404.0 666.0 L 410.0 673.0 L 415.0 681.0 L 419.0 684.0 L 419.0 686.0 L 443.0 718.0 L 447.0 722.0 L 453.0 731.0 L 457.0 734.0 L 457.0 736.0 L 460.0 738.0 L 461.0 741.0 L 470.0 751.0 L 484.0 770.0 L 489.0 775.0 L 489.0 777.0 L 488.0 778.0 L 479.0 780.0 L 469.0 785.0 L 419.0 824.0 L 397.0 836.0 L 394.0 836.0 L 392.0 834.0 L 392.0 832.0 L 391.0 831.0 L 389.0 823.0 L 387.0 820.0 L 382.0 803.0 L 377.0 792.0 L 373.0 778.0 L 371.0 775.0 L 367.0 761.0 L 365.0 758.0 L 361.0 744.0 L 359.0 741.0 L 359.0 738.0 L 356.0 732.0 L 356.0 730.0 L 349.0 711.0 L 349.0 708.0 L 344.0 695.0 L 344.0 692.0 L 343.0 691.0 L 343.0 684.0 L 346.0 678.0 L 348.0 670.0 L 350.0 667.0 L 352.0 659.0 L 354.0 656.0 L 354.0 654.0 L 355.0 653.0 L 359.0 639.0 L 361.0 636.0 L 365.0 622.0 L 367.0 619.0 L 368.0 614.0 L 371.0 608.0 Z M 385.0 595.0 L 388.0 596.0 L 395.0 603.0 L 405.0 610.0 L 415.0 619.0 L 458.0 650.0 L 472.0 657.0 L 475.0 657.0 L 480.0 659.0 L 485.0 659.0 L 486.0 660.0 L 498.0 660.0 L 499.0 661.0 L 521.0 661.0 L 522.0 660.0 L 533.0 660.0 L 534.0 659.0 L 540.0 659.0 L 541.0 658.0 L 545.0 658.0 L 546.0 657.0 L 549.0 657.0 L 550.0 656.0 L 555.0 655.0 L 566.0 650.0 L 572.0 646.0 L 601.0 617.0 L 603.0 618.0 L 602.0 631.0 L 601.0 632.0 L 600.0 653.0 L 599.0 654.0 L 599.0 677.0 L 600.0 678.0 L 599.0 700.0 L 601.0 701.0 L 601.0 704.0 L 600.0 705.0 L 600.0 711.0 L 601.0 712.0 L 601.0 748.0 L 600.0 749.0 L 599.0 768.0 L 598.0 769.0 L 598.0 773.0 L 597.0 774.0 L 598.0 779.0 L 596.0 780.0 L 596.0 784.0 L 595.0 785.0 L 594.0 792.0 L 593.0 793.0 L 591.0 801.0 L 589.0 804.0 L 589.0 806.0 L 584.0 815.0 L 584.0 818.0 L 582.0 819.0 L 580.0 824.0 L 565.0 845.0 L 563.0 845.0 L 561.0 843.0 L 557.0 834.0 L 554.0 832.0 L 553.0 827.0 L 551.0 826.0 L 551.0 824.0 L 548.0 818.0 L 546.0 816.0 L 544.0 811.0 L 540.0 805.0 L 530.0 796.0 L 524.0 793.0 L 522.0 793.0 L 516.0 790.0 L 514.0 788.0 L 510.0 786.0 L 508.0 786.0 L 505.0 784.0 L 492.0 772.0 L 492.0 770.0 L 487.0 766.0 L 487.0 764.0 L 482.0 760.0 L 482.0 758.0 L 474.0 749.0 L 463.0 734.0 L 458.0 729.0 L 439.0 703.0 L 436.0 701.0 L 436.0 699.0 L 433.0 696.0 L 431.0 692.0 L 427.0 688.0 L 424.0 683.0 L 421.0 681.0 L 421.0 679.0 L 418.0 677.0 L 418.0 675.0 L 412.0 668.0 L 410.0 664.0 L 406.0 660.0 L 404.0 656.0 L 401.0 654.0 L 401.0 652.0 L 399.0 649.0 L 396.0 647.0 L 396.0 645.0 L 393.0 643.0 L 393.0 641.0 L 391.0 640.0 L 391.0 638.0 L 389.0 637.0 L 389.0 635.0 L 385.0 629.0 L 385.0 605.0 L 384.0 604.0 L 384.0 596.0 Z M 335.0 405.0 L 336.0 404.0 L 338.0 404.0 L 340.0 406.0 L 340.0 409.0 L 338.0 410.0 Z M 291.0 409.0 L 295.0 403.0 L 295.0 401.0 L 297.0 399.0 L 303.0 396.0 L 306.0 396.0 L 307.0 395.0 L 309.0 396.0 L 313.0 396.0 L 322.0 400.0 L 325.0 403.0 L 327.0 403.0 L 328.0 404.0 L 328.0 406.0 L 332.0 410.0 L 333.0 413.0 L 335.0 415.0 L 337.0 419.0 L 337.0 421.0 L 339.0 424.0 L 341.0 434.0 L 342.0 436.0 L 343.0 436.0 L 346.0 434.0 L 346.0 428.0 L 345.0 427.0 L 345.0 406.0 L 346.0 405.0 L 359.0 405.0 L 362.0 407.0 L 361.0 427.0 L 362.0 428.0 L 362.0 444.0 L 363.0 445.0 L 363.0 450.0 L 364.0 451.0 L 364.0 454.0 L 366.0 457.0 L 366.0 459.0 L 372.0 469.0 L 380.0 477.0 L 383.0 477.0 L 385.0 480.0 L 393.0 484.0 L 403.0 486.0 L 404.0 487.0 L 409.0 487.0 L 410.0 488.0 L 422.0 488.0 L 423.0 489.0 L 429.0 489.0 L 430.0 488.0 L 439.0 488.0 L 440.0 487.0 L 450.0 486.0 L 451.0 485.0 L 457.0 484.0 L 460.0 482.0 L 462.0 482.0 L 474.0 475.0 L 478.0 471.0 L 479.0 471.0 L 479.0 470.0 L 484.0 465.0 L 489.0 456.0 L 489.0 454.0 L 491.0 450.0 L 491.0 447.0 L 492.0 446.0 L 492.0 441.0 L 493.0 440.0 L 493.0 424.0 L 492.0 423.0 L 492.0 402.0 L 493.0 401.0 L 495.0 401.0 L 499.0 399.0 L 502.0 399.0 L 503.0 398.0 L 510.0 398.0 L 511.0 397.0 L 517.0 397.0 L 518.0 398.0 L 523.0 398.0 L 524.0 399.0 L 526.0 399.0 L 527.0 400.0 L 527.0 406.0 L 529.0 407.0 L 529.0 409.0 L 528.0 410.0 L 528.0 417.0 L 526.0 418.0 L 525.0 417.0 L 525.0 414.0 L 522.0 414.0 L 521.0 422.0 L 523.0 424.0 L 522.0 431.0 L 523.0 432.0 L 523.0 437.0 L 524.0 438.0 L 525.0 447.0 L 527.0 451.0 L 527.0 454.0 L 528.0 455.0 L 529.0 460.0 L 532.0 462.0 L 532.0 460.0 L 533.0 459.0 L 532.0 454.0 L 534.0 453.0 L 536.0 457.0 L 544.0 466.0 L 557.0 474.0 L 559.0 474.0 L 562.0 476.0 L 565.0 476.0 L 569.0 478.0 L 574.0 478.0 L 575.0 479.0 L 584.0 479.0 L 585.0 480.0 L 606.0 479.0 L 607.0 478.0 L 616.0 477.0 L 617.0 476.0 L 628.0 473.0 L 631.0 471.0 L 633.0 471.0 L 642.0 465.0 L 648.0 459.0 L 651.0 454.0 L 653.0 455.0 L 653.0 459.0 L 652.0 460.0 L 652.0 469.0 L 651.0 470.0 L 651.0 479.0 L 650.0 480.0 L 650.0 488.0 L 649.0 489.0 L 650.0 498.0 L 648.0 499.0 L 648.0 504.0 L 649.0 506.0 L 647.0 510.0 L 647.0 518.0 L 646.0 519.0 L 646.0 527.0 L 645.0 528.0 L 645.0 537.0 L 644.0 538.0 L 645.0 546.0 L 643.0 547.0 L 643.0 551.0 L 642.0 552.0 L 641.0 557.0 L 633.0 572.0 L 627.0 580.0 L 621.0 586.0 L 621.0 588.0 L 615.0 593.0 L 615.0 595.0 L 612.0 597.0 L 588.0 622.0 L 588.0 624.0 L 586.0 626.0 L 585.0 626.0 L 570.0 641.0 L 563.0 645.0 L 562.0 647.0 L 560.0 647.0 L 557.0 649.0 L 555.0 649.0 L 552.0 651.0 L 550.0 651.0 L 546.0 653.0 L 536.0 654.0 L 535.0 655.0 L 528.0 655.0 L 527.0 656.0 L 493.0 656.0 L 492.0 655.0 L 484.0 655.0 L 483.0 654.0 L 479.0 654.0 L 478.0 653.0 L 470.0 651.0 L 461.0 645.0 L 457.0 644.0 L 456.0 642.0 L 454.0 642.0 L 452.0 639.0 L 449.0 637.0 L 447.0 637.0 L 446.0 635.0 L 444.0 635.0 L 442.0 632.0 L 430.0 623.0 L 428.0 623.0 L 426.0 620.0 L 424.0 620.0 L 422.0 617.0 L 420.0 617.0 L 417.0 613.0 L 412.0 610.0 L 408.0 606.0 L 406.0 606.0 L 402.0 601.0 L 401.0 601.0 L 396.0 596.0 L 394.0 596.0 L 376.0 577.0 L 369.0 565.0 L 369.0 563.0 L 366.0 556.0 L 366.0 553.0 L 365.0 552.0 L 365.0 549.0 L 363.0 544.0 L 363.0 540.0 L 361.0 535.0 L 361.0 531.0 L 360.0 530.0 L 360.0 526.0 L 359.0 525.0 L 359.0 521.0 L 358.0 520.0 L 356.0 506.0 L 354.0 504.0 L 355.0 500.0 L 354.0 499.0 L 353.0 488.0 L 352.0 487.0 L 352.0 482.0 L 351.0 481.0 L 348.0 481.0 L 347.0 483.0 L 347.0 485.0 L 348.0 486.0 L 348.0 491.0 L 349.0 492.0 L 349.0 498.0 L 351.0 499.0 L 350.0 504.0 L 352.0 505.0 L 351.0 507.0 L 352.0 512.0 L 348.0 520.0 L 343.0 525.0 L 339.0 527.0 L 329.0 527.0 L 323.0 523.0 L 321.0 523.0 L 316.0 517.0 L 313.0 510.0 L 313.0 493.0 L 311.0 492.0 L 312.0 490.0 L 311.0 484.0 L 310.0 483.0 L 307.0 472.0 L 305.0 469.0 L 305.0 467.0 L 294.0 445.0 L 294.0 443.0 L 292.0 440.0 L 291.0 434.0 L 290.0 433.0 L 290.0 429.0 L 289.0 428.0 L 289.0 417.0 L 290.0 416.0 Z M 684.0 380.0 L 688.0 382.0 L 694.0 388.0 L 697.0 394.0 L 698.0 401.0 L 700.0 403.0 L 699.0 405.0 L 700.0 415.0 L 698.0 417.0 L 697.0 425.0 L 696.0 426.0 L 692.0 440.0 L 686.0 453.0 L 685.0 459.0 L 683.0 463.0 L 683.0 467.0 L 682.0 468.0 L 682.0 470.0 L 683.0 471.0 L 683.0 480.0 L 682.0 481.0 L 682.0 495.0 L 681.0 496.0 L 681.0 498.0 L 672.0 508.0 L 668.0 510.0 L 666.0 510.0 L 663.0 512.0 L 662.0 511.0 L 657.0 510.0 L 653.0 507.0 L 653.0 499.0 L 652.0 498.0 L 652.0 497.0 L 654.0 496.0 L 654.0 487.0 L 655.0 486.0 L 655.0 478.0 L 656.0 477.0 L 656.0 471.0 L 655.0 469.0 L 657.0 466.0 L 657.0 454.0 L 658.0 453.0 L 658.0 448.0 L 659.0 447.0 L 664.0 448.0 L 664.0 446.0 L 665.0 445.0 L 665.0 433.0 L 667.0 431.0 L 671.0 431.0 L 675.0 436.0 L 675.0 439.0 L 677.0 441.0 L 677.0 445.0 L 675.0 446.0 L 675.0 449.0 L 674.0 450.0 L 674.0 452.0 L 672.0 454.0 L 672.0 456.0 L 668.0 459.0 L 665.0 460.0 L 663.0 465.0 L 668.0 465.0 L 670.0 464.0 L 672.0 461.0 L 677.0 457.0 L 680.0 450.0 L 679.0 448.0 L 679.0 444.0 L 680.0 443.0 L 679.0 433.0 L 674.0 427.0 L 669.0 426.0 L 668.0 425.0 L 668.0 422.0 L 671.0 418.0 L 672.0 415.0 L 681.0 406.0 L 688.0 403.0 L 688.0 400.0 L 686.0 400.0 L 685.0 399.0 L 679.0 401.0 L 679.0 403.0 L 678.0 404.0 L 675.0 404.0 L 670.0 409.0 L 664.0 419.0 L 664.0 421.0 L 661.0 428.0 L 659.0 427.0 L 658.0 401.0 L 660.0 398.0 L 660.0 396.0 L 662.0 393.0 L 663.0 389.0 L 668.0 384.0 L 676.0 380.0 Z M 652.0 381.0 L 652.0 392.0 L 653.0 393.0 L 653.0 413.0 L 654.0 414.0 L 654.0 431.0 L 653.0 432.0 L 653.0 437.0 L 652.0 438.0 L 652.0 441.0 L 650.0 444.0 L 650.0 446.0 L 645.0 454.0 L 633.0 465.0 L 625.0 469.0 L 623.0 469.0 L 619.0 471.0 L 616.0 471.0 L 615.0 472.0 L 612.0 472.0 L 611.0 473.0 L 607.0 473.0 L 606.0 474.0 L 598.0 474.0 L 597.0 475.0 L 581.0 475.0 L 580.0 474.0 L 573.0 474.0 L 572.0 473.0 L 569.0 473.0 L 568.0 472.0 L 560.0 470.0 L 552.0 466.0 L 548.0 462.0 L 547.0 462.0 L 540.0 453.0 L 536.0 445.0 L 535.0 439.0 L 534.0 438.0 L 534.0 434.0 L 533.0 433.0 L 533.0 422.0 L 532.0 421.0 L 532.0 398.0 L 530.0 395.0 L 521.0 394.0 L 520.0 393.0 L 505.0 393.0 L 504.0 394.0 L 500.0 394.0 L 499.0 395.0 L 492.0 396.0 L 487.0 399.0 L 488.0 441.0 L 487.0 442.0 L 486.0 450.0 L 483.0 455.0 L 483.0 457.0 L 479.0 463.0 L 471.0 471.0 L 465.0 475.0 L 461.0 476.0 L 456.0 479.0 L 454.0 479.0 L 450.0 481.0 L 447.0 481.0 L 446.0 482.0 L 434.0 483.0 L 433.0 484.0 L 416.0 484.0 L 415.0 483.0 L 408.0 483.0 L 407.0 482.0 L 399.0 481.0 L 388.0 476.0 L 382.0 472.0 L 374.0 463.0 L 373.0 460.0 L 370.0 456.0 L 370.0 454.0 L 368.0 450.0 L 368.0 446.0 L 367.0 445.0 L 367.0 436.0 L 366.0 435.0 L 366.0 417.0 L 364.0 415.0 L 364.0 410.0 L 365.0 409.0 L 364.0 404.0 L 365.0 403.0 L 365.0 395.0 L 366.0 394.0 L 401.0 393.0 L 402.0 392.0 L 418.0 392.0 L 419.0 391.0 L 435.0 391.0 L 436.0 390.0 L 459.0 390.0 L 460.0 388.0 L 464.0 388.0 L 465.0 389.0 L 476.0 389.0 L 477.0 388.0 L 488.0 388.0 L 489.0 387.0 L 492.0 387.0 L 500.0 384.0 L 514.0 383.0 L 515.0 382.0 L 521.0 383.0 L 522.0 384.0 L 527.0 384.0 L 528.0 385.0 L 549.0 385.0 L 550.0 384.0 L 568.0 384.0 L 569.0 382.0 L 571.0 382.0 L 572.0 383.0 L 585.0 383.0 L 586.0 382.0 L 608.0 382.0 L 609.0 380.0 L 615.0 380.0 L 616.0 381.0 L 625.0 381.0 L 626.0 380.0 L 651.0 380.0 Z M 345.0 399.0 L 345.0 380.0 L 346.0 379.0 L 346.0 374.0 L 347.0 373.0 L 348.0 367.0 L 355.0 355.0 L 369.0 343.0 L 372.0 339.0 L 376.0 330.0 L 377.0 315.0 L 376.0 314.0 L 376.0 304.0 L 375.0 303.0 L 375.0 285.0 L 376.0 284.0 L 377.0 278.0 L 384.0 266.0 L 386.0 264.0 L 400.0 265.0 L 401.0 264.0 L 409.0 264.0 L 410.0 263.0 L 418.0 262.0 L 421.0 260.0 L 423.0 260.0 L 427.0 258.0 L 429.0 256.0 L 443.0 249.0 L 449.0 248.0 L 450.0 247.0 L 454.0 247.0 L 455.0 246.0 L 461.0 246.0 L 462.0 245.0 L 480.0 245.0 L 481.0 246.0 L 492.0 247.0 L 493.0 248.0 L 496.0 248.0 L 497.0 249.0 L 500.0 249.0 L 504.0 251.0 L 510.0 252.0 L 513.0 254.0 L 518.0 255.0 L 525.0 259.0 L 527.0 259.0 L 541.0 266.0 L 556.0 276.0 L 570.0 290.0 L 577.0 300.0 L 580.0 300.0 L 581.0 298.0 L 581.0 282.0 L 580.0 281.0 L 580.0 278.0 L 579.0 277.0 L 578.0 272.0 L 580.0 271.0 L 590.0 276.0 L 596.0 280.0 L 612.0 297.0 L 616.0 303.0 L 623.0 317.0 L 623.0 319.0 L 626.0 324.0 L 626.0 326.0 L 629.0 332.0 L 635.0 336.0 L 642.0 338.0 L 647.0 343.0 L 650.0 350.0 L 651.0 359.0 L 652.0 360.0 L 652.0 374.0 L 651.0 375.0 L 629.0 376.0 L 628.0 375.0 L 628.0 370.0 L 627.0 370.0 L 623.0 365.0 L 615.0 360.0 L 613.0 360.0 L 610.0 358.0 L 607.0 358.0 L 606.0 357.0 L 602.0 357.0 L 601.0 356.0 L 580.0 356.0 L 579.0 357.0 L 575.0 357.0 L 574.0 358.0 L 570.0 358.0 L 562.0 361.0 L 559.0 361.0 L 551.0 365.0 L 551.0 366.0 L 550.0 367.0 L 548.0 367.0 L 546.0 370.0 L 548.0 374.0 L 548.0 376.0 L 554.0 376.0 L 555.0 375.0 L 558.0 375.0 L 559.0 374.0 L 561.0 374.0 L 568.0 371.0 L 571.0 371.0 L 575.0 369.0 L 585.0 368.0 L 586.0 367.0 L 603.0 367.0 L 604.0 368.0 L 609.0 368.0 L 610.0 369.0 L 618.0 371.0 L 622.0 373.0 L 623.0 375.0 L 622.0 376.0 L 614.0 376.0 L 613.0 378.0 L 606.0 378.0 L 605.0 377.0 L 598.0 377.0 L 597.0 378.0 L 579.0 378.0 L 576.0 380.0 L 557.0 379.0 L 556.0 381.0 L 550.0 381.0 L 549.0 380.0 L 532.0 381.0 L 531.0 380.0 L 526.0 380.0 L 525.0 379.0 L 503.0 379.0 L 502.0 380.0 L 492.0 381.0 L 481.0 385.0 L 479.0 384.0 L 469.0 384.0 L 468.0 385.0 L 450.0 385.0 L 449.0 387.0 L 430.0 386.0 L 429.0 387.0 L 409.0 387.0 L 407.0 389.0 L 393.0 388.0 L 392.0 389.0 L 362.0 390.0 L 360.0 394.0 L 360.0 399.0 L 359.0 400.0 L 346.0 400.0 Z M 646.0 185.0 L 646.0 186.0 L 643.0 188.0 L 639.0 188.0 L 635.0 190.0 L 635.0 194.0 L 642.0 198.0 L 657.0 214.0 L 664.0 227.0 L 664.0 229.0 L 668.0 237.0 L 670.0 247.0 L 671.0 248.0 L 671.0 251.0 L 672.0 252.0 L 672.0 256.0 L 671.0 257.0 L 665.0 254.0 L 662.0 255.0 L 662.0 258.0 L 665.0 265.0 L 665.0 268.0 L 666.0 269.0 L 666.0 272.0 L 668.0 277.0 L 669.0 287.0 L 670.0 288.0 L 670.0 296.0 L 671.0 297.0 L 671.0 332.0 L 670.0 333.0 L 669.0 348.0 L 668.0 349.0 L 668.0 354.0 L 667.0 355.0 L 666.0 364.0 L 665.0 365.0 L 664.0 372.0 L 662.0 376.0 L 662.0 379.0 L 660.0 382.0 L 658.0 381.0 L 658.0 379.0 L 657.0 378.0 L 657.0 363.0 L 656.0 362.0 L 656.0 356.0 L 655.0 355.0 L 654.0 347.0 L 651.0 340.0 L 647.0 335.0 L 641.0 332.0 L 636.0 331.0 L 632.0 327.0 L 629.0 321.0 L 628.0 316.0 L 618.0 297.0 L 612.0 289.0 L 599.0 276.0 L 583.0 267.0 L 571.0 264.0 L 570.0 265.0 L 570.0 268.0 L 574.0 275.0 L 574.0 277.0 L 576.0 281.0 L 576.0 286.0 L 574.0 287.0 L 566.0 278.0 L 565.0 278.0 L 560.0 273.0 L 549.0 265.0 L 530.0 255.0 L 528.0 255.0 L 521.0 251.0 L 516.0 250.0 L 513.0 248.0 L 511.0 248.0 L 507.0 246.0 L 504.0 246.0 L 500.0 244.0 L 493.0 243.0 L 492.0 242.0 L 479.0 241.0 L 478.0 240.0 L 461.0 240.0 L 460.0 241.0 L 454.0 241.0 L 453.0 242.0 L 451.0 242.0 L 450.0 241.0 L 453.0 236.0 L 467.0 222.0 L 478.0 214.0 L 494.0 206.0 L 496.0 206.0 L 503.0 203.0 L 510.0 202.0 L 511.0 201.0 L 519.0 201.0 L 521.0 200.0 L 522.0 198.0 L 521.0 196.0 L 513.0 196.0 L 512.0 197.0 L 507.0 197.0 L 506.0 198.0 L 503.0 198.0 L 499.0 200.0 L 493.0 201.0 L 475.0 210.0 L 465.0 217.0 L 449.0 233.0 L 445.0 239.0 L 438.0 246.0 L 430.0 250.0 L 428.0 252.0 L 414.0 258.0 L 406.0 259.0 L 405.0 260.0 L 389.0 260.0 L 388.0 259.0 L 385.0 259.0 L 384.0 258.0 L 379.0 257.0 L 370.0 252.0 L 358.0 240.0 L 356.0 239.0 L 354.0 240.0 L 354.0 243.0 L 356.0 246.0 L 364.0 254.0 L 371.0 259.0 L 375.0 261.0 L 377.0 261.0 L 379.0 263.0 L 379.0 265.0 L 377.0 267.0 L 373.0 275.0 L 373.0 277.0 L 371.0 281.0 L 371.0 285.0 L 370.0 286.0 L 370.0 299.0 L 371.0 300.0 L 371.0 310.0 L 372.0 311.0 L 372.0 326.0 L 368.0 336.0 L 350.0 353.0 L 344.0 363.0 L 342.0 373.0 L 341.0 374.0 L 341.0 381.0 L 340.0 382.0 L 340.0 399.0 L 339.0 400.0 L 330.0 400.0 L 320.0 393.0 L 320.0 391.0 L 317.0 384.0 L 316.0 377.0 L 314.0 373.0 L 312.0 362.0 L 311.0 361.0 L 311.0 356.0 L 310.0 355.0 L 310.0 350.0 L 309.0 349.0 L 309.0 344.0 L 308.0 343.0 L 308.0 334.0 L 307.0 333.0 L 307.0 303.0 L 308.0 302.0 L 308.0 297.0 L 309.0 296.0 L 309.0 290.0 L 308.0 289.0 L 304.0 289.0 L 302.0 291.0 L 300.0 290.0 L 300.0 282.0 L 301.0 281.0 L 301.0 277.0 L 302.0 276.0 L 302.0 273.0 L 303.0 272.0 L 304.0 267.0 L 310.0 254.0 L 316.0 247.0 L 316.0 244.0 L 311.0 243.0 L 310.0 244.0 L 305.0 245.0 L 304.0 244.0 L 304.0 242.0 L 307.0 236.0 L 309.0 234.0 L 309.0 232.0 L 311.0 231.0 L 318.0 223.0 L 320.0 223.0 L 328.0 218.0 L 330.0 218.0 L 330.0 217.0 L 332.0 216.0 L 332.0 214.0 L 330.0 210.0 L 323.0 203.0 L 322.0 203.0 L 320.0 200.0 L 321.0 199.0 L 339.0 200.0 L 339.0 187.0 L 340.0 186.0 L 341.0 180.0 L 342.0 179.0 L 344.0 179.0 L 345.0 180.0 L 345.0 183.0 L 347.0 188.0 L 348.0 189.0 L 351.0 189.0 L 353.0 187.0 L 353.0 185.0 L 356.0 181.0 L 357.0 178.0 L 364.0 168.0 L 381.0 151.0 L 392.0 143.0 L 410.0 133.0 L 412.0 133.0 L 419.0 129.0 L 421.0 129.0 L 432.0 124.0 L 435.0 124.0 L 439.0 122.0 L 442.0 122.0 L 443.0 121.0 L 446.0 121.0 L 447.0 120.0 L 450.0 120.0 L 455.0 118.0 L 459.0 118.0 L 460.0 117.0 L 464.0 117.0 L 465.0 116.0 L 470.0 116.0 L 472.0 114.0 L 477.0 115.0 L 478.0 114.0 L 487.0 114.0 L 488.0 113.0 L 491.0 113.0 L 492.0 115.0 L 485.0 123.0 L 484.0 128.0 L 489.0 128.0 L 493.0 126.0 L 496.0 126.0 L 497.0 125.0 L 500.0 125.0 L 505.0 123.0 L 513.0 123.0 L 514.0 122.0 L 535.0 122.0 L 536.0 123.0 L 542.0 123.0 L 543.0 124.0 L 548.0 124.0 L 549.0 125.0 L 553.0 125.0 L 554.0 126.0 L 561.0 127.0 L 564.0 129.0 L 583.0 135.0 L 584.0 137.0 L 582.0 139.0 L 579.0 139.0 L 572.0 142.0 L 570.0 144.0 L 570.0 146.0 L 571.0 147.0 L 582.0 147.0 L 583.0 148.0 L 593.0 149.0 L 612.0 156.0 L 631.0 169.0 Z" fill="#4a347b" fill-rule="evenodd" clip-rule="evenodd"/>
</svg>